  0
SECTION
  2
HEADER
  9
$ACADVER
  1
AC1014
  9
$HANDSEED
  5
FFFF
  9
$MEASUREMENT
 70
     1
  0
ENDSEC
  0
SECTION
  2
TABLES
  0
TABLE
  2
VPORT
  5
8
330
0
100
AcDbSymbolTable
 70
     4
  0
VPORT
  5
2E
330
8
100
AcDbSymbolTableRecord
100
AcDbViewportTableRecord
  2
*ACTIVE
 70
     0
 10
0.0
 20
0.0
 11
1.0
 21
1.0
 12
210.0
 22
148.5
 13
0.0
 23
0.0
 14
10.0
 24
10.0
 15
10.0
 25
10.0
 16
0.0
 26
0.0
 36
1.0
 17
0.0
 27
0.0
 37
0.0
 40
341.0
 41
1.24
 42
50.0
 43
0.0
 44
0.0
 50
0.0
 51
0.0
 71
     0
 72
   100
 73
     1
 74
     3
 75
     0
 76
     0
 77
     0
 78
     0
  0
ENDTAB
  0
TABLE
  2
LTYPE
  5
5
330
0
100
AcDbSymbolTable
 70
     1
  0
LTYPE
  5
14
330
5
100
AcDbSymbolTableRecord
100
AcDbLinetypeTableRecord
  2
BYBLOCK
 70
     0
  3

 72
    65
 73
     0
 40
0.0
  0
LTYPE
  5
15
330
5
100
AcDbSymbolTableRecord
100
AcDbLinetypeTableRecord
  2
BYLAYER
 70
     0
  3

 72
    65
 73
     0
 40
0.0
  0
LTYPE
  5
16
330
5
100
AcDbSymbolTableRecord
100
AcDbLinetypeTableRecord
  2
CONTINUOUS
 70
     0
  3
Solid line
 72
    65
 73
     0
 40
0.0
  0
ENDTAB
  0
TABLE
  2
LAYER
  5
2
100
AcDbSymbolTable
 70
5
  0
LAYER
  5
50
100
AcDbSymbolTableRecord
100
AcDbLayerTableRecord
  2
0
 70
0
  6
CONTINUOUS
  0
LAYER
  5
51
100
AcDbSymbolTableRecord
100
AcDbLayerTableRecord
  2
圖層_1
 70
0
  6
CONTINUOUS
  0
LAYER
  5
52
100
AcDbSymbolTableRecord
100
AcDbLayerTableRecord
  2
borad
 70
0
  6
CONTINUOUS
  0
LAYER
  5
53
100
AcDbSymbolTableRecord
100
AcDbLayerTableRecord
  2
pico
 70
0
  6
CONTINUOUS
  0
LAYER
  5
54
100
AcDbSymbolTableRecord
100
AcDbLayerTableRecord
  2
OLED
 70
0
  6
CONTINUOUS
  0
ENDTAB
  0
TABLE
  2
STYLE
  5
3
330
0
100
AcDbSymbolTable
 70
     1
  0
STYLE
  5
11
330
3
100
AcDbSymbolTableRecord
100
AcDbTextStyleTableRecord
  2
STANDARD
 70
     0
 40
0.0
 41
1.0
 50
0.0
 71
     0
 42
2.5
  3
txt
  4

  0
ENDTAB
  0
TABLE
  2
VIEW
  5
6
330
0
100
AcDbSymbolTable
 70
     0
  0
ENDTAB
  0
TABLE
  2
UCS
  5
7
330
0
100
AcDbSymbolTable
 70
     0
  0
ENDTAB
  0
TABLE
  2
APPID
  5
9
330
0
100
AcDbSymbolTable
 70
     2
  0
APPID
  5
12
330
9
100
AcDbSymbolTableRecord
100
AcDbRegAppTableRecord
  2
ACAD
 70
     0
  0
ENDTAB
  0
TABLE
  2
DIMSTYLE
  5
A
330
0
100
AcDbSymbolTable
 70
     1
  0
DIMSTYLE
105
27
330
A
100
AcDbSymbolTableRecord
100
AcDbDimStyleTableRecord
  2
ISO-25
 70
     0
  3

  4

  5

  6

  7

 40
1.0
 41
2.5
 42
0.625
 43
3.75
 44
1.25
 45
0.0
 46
0.0
 47
0.0
 48
0.0
140
2.5
141
2.5
142
0.0
143
0.03937007874016
144
1.0
145
0.0
146
1.0
147
0.625
 71
     0
 72
     0
 73
     0
 74
     0
 75
     0
 76
     0
 77
     1
 78
     8
170
     0
171
     3
172
     1
173
     0
174
     0
175
     0
176
     0
177
     0
178
     0
270
     2
271
     2
272
     2
273
     2
274
     3
340
11
275
     0
280
     0
281
     0
282
     0
283
     0
284
     8
285
     0
286
     0
287
     3
288
     0
  0
ENDTAB
  0
TABLE
  2
BLOCK_RECORD
  5
1
330
0
100
AcDbSymbolTable
 70
     1
  0
BLOCK_RECORD
  5
1F
330
1
100
AcDbSymbolTableRecord
100
AcDbBlockTableRecord
  2
*MODEL_SPACE
  0
BLOCK_RECORD
  5
1B
330
1
100
AcDbSymbolTableRecord
100
AcDbBlockTableRecord
  2
*PAPER_SPACE
  0
ENDTAB
  0
ENDSEC
  0
SECTION
  2
BLOCKS
  0
BLOCK
  5
20
330
1F
100
AcDbEntity
  8
0
100
AcDbBlockBegin
  2
*MODEL_SPACE
 70
     0
 10
0.0
 20
0.0
 30
0.0
  3
*MODEL_SPACE
  1

  0
ENDBLK
  5
21
330
1F
100
AcDbEntity
  8
0
100
AcDbBlockEnd
  0
BLOCK
  5
1C
330
1B
100
AcDbEntity
 67
     1
  8
0
100
AcDbBlockBegin
  2
*PAPER_SPACE
  1

  0
ENDBLK
  5
1D
330
1B
100
AcDbEntity
 67
     1
  8
0
100
AcDbBlockEnd
  0
ENDSEC
  0
SECTION
  2
ENTITIES
  0
SPLINE
  5
100
100
AcDbEntity
  8
borad
 62
1
100
AcDbSpline
 70
8
 71
3
 72
8
 73
4
 74
0
 40
0
 40
0
 40
0
 40
0
 40
1
 40
1
 40
1
 40
1
 10
682.300974
 20
-28.616542
 30
0.0
 10
687.312939
 20
-28.616542
 30
0.0
 10
692.119627
 20
-30.607537
 30
0.0
 10
695.663622
 20
-34.151532
 30
0.0
  0
SPLINE
  5
101
100
AcDbEntity
  8
borad
 62
1
100
AcDbSpline
 70
8
 71
3
 72
8
 73
4
 74
0
 40
0
 40
0
 40
0
 40
0
 40
1
 40
1
 40
1
 40
1
 10
695.663622
 20
-34.151532
 30
0.0
 10
699.207616
 20
-37.695526
 30
0.0
 10
701.198612
 20
-42.502214
 30
0.0
 10
701.198612
 20
-47.514180
 30
0.0
  0
LWPOLYLINE
  5
102
100
AcDbEntity
  8
borad
 62
1
100
AcDbPolyline
 90
2
 70
0
 10
543.626306
 20
-28.616542
 30
0.0
 10
682.300974
 20
-28.616542
 30
0.0
  0
SPLINE
  5
103
100
AcDbEntity
  8
borad
 62
1
100
AcDbSpline
 70
8
 71
3
 72
8
 73
4
 74
0
 40
0
 40
0
 40
0
 40
0
 40
1
 40
1
 40
1
 40
1
 10
701.198612
 20
-213.897075
 30
0.0
 10
701.198612
 20
-218.909040
 30
0.0
 10
699.207616
 20
-223.715728
 30
0.0
 10
695.663622
 20
-227.259722
 30
0.0
  0
SPLINE
  5
104
100
AcDbEntity
  8
borad
 62
1
100
AcDbSpline
 70
8
 71
3
 72
8
 73
4
 74
0
 40
0
 40
0
 40
0
 40
0
 40
1
 40
1
 40
1
 40
1
 10
695.663622
 20
-227.259722
 30
0.0
 10
692.119627
 20
-230.803717
 30
0.0
 10
687.312939
 20
-232.794712
 30
0.0
 10
682.300974
 20
-232.794712
 30
0.0
  0
LWPOLYLINE
  5
105
100
AcDbEntity
  8
borad
 62
1
100
AcDbPolyline
 90
2
 70
0
 10
701.198612
 20
-47.514180
 30
0.0
 10
701.198612
 20
-213.897075
 30
0.0
  0
SPLINE
  5
106
100
AcDbEntity
  8
borad
 62
1
100
AcDbSpline
 70
8
 71
3
 72
8
 73
4
 74
0
 40
0
 40
0
 40
0
 40
0
 40
1
 40
1
 40
1
 40
1
 10
543.626306
 20
-232.794712
 30
0.0
 10
538.614340
 20
-232.794712
 30
0.0
 10
533.807652
 20
-230.803717
 30
0.0
 10
530.263658
 20
-227.259722
 30
0.0
  0
SPLINE
  5
107
100
AcDbEntity
  8
borad
 62
1
100
AcDbSpline
 70
8
 71
3
 72
8
 73
4
 74
0
 40
0
 40
0
 40
0
 40
0
 40
1
 40
1
 40
1
 40
1
 10
530.263658
 20
-227.259722
 30
0.0
 10
526.719663
 20
-223.715728
 30
0.0
 10
524.728668
 20
-218.909040
 30
0.0
 10
524.728668
 20
-213.897075
 30
0.0
  0
LWPOLYLINE
  5
108
100
AcDbEntity
  8
borad
 62
1
100
AcDbPolyline
 90
2
 70
0
 10
682.300974
 20
-232.794712
 30
0.0
 10
543.626306
 20
-232.794712
 30
0.0
  0
SPLINE
  5
109
100
AcDbEntity
  8
borad
 62
1
100
AcDbSpline
 70
8
 71
3
 72
8
 73
4
 74
0
 40
0
 40
0
 40
0
 40
0
 40
1
 40
1
 40
1
 40
1
 10
524.728668
 20
-47.514180
 30
0.0
 10
524.728668
 20
-42.502214
 30
0.0
 10
526.719663
 20
-37.695526
 30
0.0
 10
530.263658
 20
-34.151532
 30
0.0
  0
SPLINE
  5
10a
100
AcDbEntity
  8
borad
 62
1
100
AcDbSpline
 70
8
 71
3
 72
8
 73
4
 74
0
 40
0
 40
0
 40
0
 40
0
 40
1
 40
1
 40
1
 40
1
 10
530.263658
 20
-34.151532
 30
0.0
 10
533.807652
 20
-30.607537
 30
0.0
 10
538.614340
 20
-28.616542
 30
0.0
 10
543.626306
 20
-28.616542
 30
0.0
  0
LWPOLYLINE
  5
10b
100
AcDbEntity
  8
borad
 62
1
100
AcDbPolyline
 90
2
 70
0
 10
524.728668
 20
-213.897075
 30
0.0
 10
524.728668
 20
-47.514180
 30
0.0
  0
SPLINE
  5
10c
100
AcDbEntity
  8
borad
 62
1
100
AcDbSpline
 70
8
 71
3
 72
8
 73
4
 74
0
 40
0
 40
0
 40
0
 40
0
 40
1
 40
1
 40
1
 40
1
 10
540.515943
 20
-39.237023
 30
0.0
 10
538.444834
 20
-39.237023
 30
0.0
 10
536.577659
 20
-40.484629
 30
0.0
 10
535.785079
 20
-42.398085
 30
0.0
  0
SPLINE
  5
10d
100
AcDbEntity
  8
borad
 62
1
100
AcDbSpline
 70
8
 71
3
 72
8
 73
4
 74
0
 40
0
 40
0
 40
0
 40
0
 40
1
 40
1
 40
1
 40
1
 10
535.785079
 20
-42.398085
 30
0.0
 10
534.992500
 20
-44.311541
 30
0.0
 10
535.430601
 20
-46.514024
 30
0.0
 10
536.895097
 20
-47.978520
 30
0.0
  0
SPLINE
  5
10e
100
AcDbEntity
  8
borad
 62
1
100
AcDbSpline
 70
8
 71
3
 72
8
 73
4
 74
0
 40
0
 40
0
 40
0
 40
0
 40
1
 40
1
 40
1
 40
1
 10
536.895097
 20
-47.978520
 30
0.0
 10
538.359593
 20
-49.443015
 30
0.0
 10
540.562075
 20
-49.881116
 30
0.0
 10
542.475531
 20
-49.088537
 30
0.0
  0
SPLINE
  5
10f
100
AcDbEntity
  8
borad
 62
1
100
AcDbSpline
 70
8
 71
3
 72
8
 73
4
 74
0
 40
0
 40
0
 40
0
 40
0
 40
1
 40
1
 40
1
 40
1
 10
542.475531
 20
-49.088537
 30
0.0
 10
544.388987
 20
-48.295958
 30
0.0
 10
545.636594
 20
-46.428783
 30
0.0
 10
545.636594
 20
-44.357673
 30
0.0
  0
SPLINE
  5
110
100
AcDbEntity
  8
borad
 62
1
100
AcDbSpline
 70
8
 71
3
 72
8
 73
4
 74
0
 40
0
 40
0
 40
0
 40
0
 40
1
 40
1
 40
1
 40
1
 10
545.636594
 20
-44.357673
 30
0.0
 10
545.636594
 20
-42.999592
 30
0.0
 10
545.097098
 20
-41.697135
 30
0.0
 10
544.136790
 20
-40.736827
 30
0.0
  0
SPLINE
  5
111
100
AcDbEntity
  8
borad
 62
1
100
AcDbSpline
 70
8
 71
3
 72
8
 73
4
 74
0
 40
0
 40
0
 40
0
 40
0
 40
1
 40
1
 40
1
 40
1
 10
544.136790
 20
-40.736827
 30
0.0
 10
543.176482
 20
-39.776518
 30
0.0
 10
541.874024
 20
-39.237023
 30
0.0
 10
540.515943
 20
-39.237023
 30
0.0
  0
LWPOLYLINE
  5
112
100
AcDbEntity
  8
borad
 62
1
100
AcDbPolyline
 90
1
 70
1
 10
543.626306
 20
-28.616542
 30
0.0
  0
SPLINE
  5
113
100
AcDbEntity
  8
borad
 62
1
100
AcDbSpline
 70
8
 71
3
 72
8
 73
4
 74
0
 40
0
 40
0
 40
0
 40
0
 40
1
 40
1
 40
1
 40
1
 10
682.942148
 20
-39.237023
 30
0.0
 10
680.871038
 20
-39.237023
 30
0.0
 10
679.003863
 20
-40.484629
 30
0.0
 10
678.211284
 20
-42.398085
 30
0.0
  0
SPLINE
  5
114
100
AcDbEntity
  8
borad
 62
1
100
AcDbSpline
 70
8
 71
3
 72
8
 73
4
 74
0
 40
0
 40
0
 40
0
 40
0
 40
1
 40
1
 40
1
 40
1
 10
678.211284
 20
-42.398085
 30
0.0
 10
677.418705
 20
-44.311541
 30
0.0
 10
677.856806
 20
-46.514024
 30
0.0
 10
679.321302
 20
-47.978520
 30
0.0
  0
SPLINE
  5
115
100
AcDbEntity
  8
borad
 62
1
100
AcDbSpline
 70
8
 71
3
 72
8
 73
4
 74
0
 40
0
 40
0
 40
0
 40
0
 40
1
 40
1
 40
1
 40
1
 10
679.321302
 20
-47.978520
 30
0.0
 10
680.785797
 20
-49.443015
 30
0.0
 10
682.988280
 20
-49.881116
 30
0.0
 10
684.901736
 20
-49.088537
 30
0.0
  0
SPLINE
  5
116
100
AcDbEntity
  8
borad
 62
1
100
AcDbSpline
 70
8
 71
3
 72
8
 73
4
 74
0
 40
0
 40
0
 40
0
 40
0
 40
1
 40
1
 40
1
 40
1
 10
684.901736
 20
-49.088537
 30
0.0
 10
686.815192
 20
-48.295958
 30
0.0
 10
688.062798
 20
-46.428783
 30
0.0
 10
688.062798
 20
-44.357673
 30
0.0
  0
SPLINE
  5
117
100
AcDbEntity
  8
borad
 62
1
100
AcDbSpline
 70
8
 71
3
 72
8
 73
4
 74
0
 40
0
 40
0
 40
0
 40
0
 40
1
 40
1
 40
1
 40
1
 10
688.062798
 20
-44.357673
 30
0.0
 10
688.062798
 20
-42.999592
 30
0.0
 10
687.523303
 20
-41.697135
 30
0.0
 10
686.562995
 20
-40.736827
 30
0.0
  0
SPLINE
  5
118
100
AcDbEntity
  8
borad
 62
1
100
AcDbSpline
 70
8
 71
3
 72
8
 73
4
 74
0
 40
0
 40
0
 40
0
 40
0
 40
1
 40
1
 40
1
 40
1
 10
686.562995
 20
-40.736827
 30
0.0
 10
685.602686
 20
-39.776518
 30
0.0
 10
684.300229
 20
-39.237023
 30
0.0
 10
682.942148
 20
-39.237023
 30
0.0
  0
LWPOLYLINE
  5
119
100
AcDbEntity
  8
borad
 62
1
100
AcDbPolyline
 90
1
 70
1
 10
540.515943
 20
-39.237023
 30
0.0
  0
SPLINE
  5
11a
100
AcDbEntity
  8
borad
 62
1
100
AcDbSpline
 70
8
 71
3
 72
8
 73
4
 74
0
 40
0
 40
0
 40
0
 40
0
 40
1
 40
1
 40
1
 40
1
 10
540.515943
 20
-209.422984
 30
0.0
 10
538.444834
 20
-209.422984
 30
0.0
 10
536.577659
 20
-210.670591
 30
0.0
 10
535.785079
 20
-212.584047
 30
0.0
  0
SPLINE
  5
11b
100
AcDbEntity
  8
borad
 62
1
100
AcDbSpline
 70
8
 71
3
 72
8
 73
4
 74
0
 40
0
 40
0
 40
0
 40
0
 40
1
 40
1
 40
1
 40
1
 10
535.785079
 20
-212.584047
 30
0.0
 10
534.992500
 20
-214.497502
 30
0.0
 10
535.430601
 20
-216.699985
 30
0.0
 10
536.895097
 20
-218.164481
 30
0.0
  0
SPLINE
  5
11c
100
AcDbEntity
  8
borad
 62
1
100
AcDbSpline
 70
8
 71
3
 72
8
 73
4
 74
0
 40
0
 40
0
 40
0
 40
0
 40
1
 40
1
 40
1
 40
1
 10
536.895097
 20
-218.164481
 30
0.0
 10
538.359593
 20
-219.628977
 30
0.0
 10
540.562075
 20
-220.067078
 30
0.0
 10
542.475531
 20
-219.274499
 30
0.0
  0
SPLINE
  5
11d
100
AcDbEntity
  8
borad
 62
1
100
AcDbSpline
 70
8
 71
3
 72
8
 73
4
 74
0
 40
0
 40
0
 40
0
 40
0
 40
1
 40
1
 40
1
 40
1
 10
542.475531
 20
-219.274499
 30
0.0
 10
544.388987
 20
-218.481919
 30
0.0
 10
545.636594
 20
-216.614744
 30
0.0
 10
545.636594
 20
-214.543635
 30
0.0
  0
SPLINE
  5
11e
100
AcDbEntity
  8
borad
 62
1
100
AcDbSpline
 70
8
 71
3
 72
8
 73
4
 74
0
 40
0
 40
0
 40
0
 40
0
 40
1
 40
1
 40
1
 40
1
 10
545.636594
 20
-214.543635
 30
0.0
 10
545.636594
 20
-213.185554
 30
0.0
 10
545.097098
 20
-211.883096
 30
0.0
 10
544.136790
 20
-210.922788
 30
0.0
  0
SPLINE
  5
11f
100
AcDbEntity
  8
borad
 62
1
100
AcDbSpline
 70
8
 71
3
 72
8
 73
4
 74
0
 40
0
 40
0
 40
0
 40
0
 40
1
 40
1
 40
1
 40
1
 10
544.136790
 20
-210.922788
 30
0.0
 10
543.176482
 20
-209.962480
 30
0.0
 10
541.874024
 20
-209.422984
 30
0.0
 10
540.515943
 20
-209.422984
 30
0.0
  0
LWPOLYLINE
  5
120
100
AcDbEntity
  8
borad
 62
1
100
AcDbPolyline
 90
1
 70
1
 10
682.942148
 20
-39.237023
 30
0.0
  0
SPLINE
  5
121
100
AcDbEntity
  8
borad
 62
1
100
AcDbSpline
 70
8
 71
3
 72
8
 73
4
 74
0
 40
0
 40
0
 40
0
 40
0
 40
1
 40
1
 40
1
 40
1
 10
682.942148
 20
-209.422984
 30
0.0
 10
680.871038
 20
-209.422984
 30
0.0
 10
679.003863
 20
-210.670591
 30
0.0
 10
678.211284
 20
-212.584047
 30
0.0
  0
SPLINE
  5
122
100
AcDbEntity
  8
borad
 62
1
100
AcDbSpline
 70
8
 71
3
 72
8
 73
4
 74
0
 40
0
 40
0
 40
0
 40
0
 40
1
 40
1
 40
1
 40
1
 10
678.211284
 20
-212.584047
 30
0.0
 10
677.418705
 20
-214.497502
 30
0.0
 10
677.856806
 20
-216.699985
 30
0.0
 10
679.321302
 20
-218.164481
 30
0.0
  0
SPLINE
  5
123
100
AcDbEntity
  8
borad
 62
1
100
AcDbSpline
 70
8
 71
3
 72
8
 73
4
 74
0
 40
0
 40
0
 40
0
 40
0
 40
1
 40
1
 40
1
 40
1
 10
679.321302
 20
-218.164481
 30
0.0
 10
680.785797
 20
-219.628977
 30
0.0
 10
682.988280
 20
-220.067078
 30
0.0
 10
684.901736
 20
-219.274499
 30
0.0
  0
SPLINE
  5
124
100
AcDbEntity
  8
borad
 62
1
100
AcDbSpline
 70
8
 71
3
 72
8
 73
4
 74
0
 40
0
 40
0
 40
0
 40
0
 40
1
 40
1
 40
1
 40
1
 10
684.901736
 20
-219.274499
 30
0.0
 10
686.815192
 20
-218.481919
 30
0.0
 10
688.062798
 20
-216.614744
 30
0.0
 10
688.062798
 20
-214.543635
 30
0.0
  0
SPLINE
  5
125
100
AcDbEntity
  8
borad
 62
1
100
AcDbSpline
 70
8
 71
3
 72
8
 73
4
 74
0
 40
0
 40
0
 40
0
 40
0
 40
1
 40
1
 40
1
 40
1
 10
688.062798
 20
-214.543635
 30
0.0
 10
688.062798
 20
-213.185554
 30
0.0
 10
687.523303
 20
-211.883096
 30
0.0
 10
686.562995
 20
-210.922788
 30
0.0
  0
SPLINE
  5
126
100
AcDbEntity
  8
borad
 62
1
100
AcDbSpline
 70
8
 71
3
 72
8
 73
4
 74
0
 40
0
 40
0
 40
0
 40
0
 40
1
 40
1
 40
1
 40
1
 10
686.562995
 20
-210.922788
 30
0.0
 10
685.602686
 20
-209.962480
 30
0.0
 10
684.300229
 20
-209.422984
 30
0.0
 10
682.942148
 20
-209.422984
 30
0.0
  0
LWPOLYLINE
  5
127
100
AcDbEntity
  8
borad
 62
1
100
AcDbPolyline
 90
1
 70
1
 10
540.515943
 20
-209.422984
 30
0.0
  0
LWPOLYLINE
  5
128
100
AcDbEntity
  8
borad
 62
1
100
AcDbPolyline
 90
1
 70
1
 10
682.942148
 20
-209.422984
 30
0.0
  0
SPLINE
  5
129
100
AcDbEntity
  8
borad
 62
1
100
AcDbSpline
 70
8
 71
3
 72
8
 73
4
 74
0
 40
0
 40
0
 40
0
 40
0
 40
1
 40
1
 40
1
 40
1
 10
169.979653
 20
283.457492
 30
0.0
 10
174.991619
 20
283.457492
 30
0.0
 10
179.798307
 20
281.466496
 30
0.0
 10
183.342301
 20
277.922502
 30
0.0
  0
SPLINE
  5
12a
100
AcDbEntity
  8
borad
 62
1
100
AcDbSpline
 70
8
 71
3
 72
8
 73
4
 74
0
 40
0
 40
0
 40
0
 40
0
 40
1
 40
1
 40
1
 40
1
 10
183.342301
 20
277.922502
 30
0.0
 10
186.886296
 20
274.378507
 30
0.0
 10
188.877291
 20
269.571819
 30
0.0
 10
188.877291
 20
264.559854
 30
0.0
  0
LWPOLYLINE
  5
12b
100
AcDbEntity
  8
borad
 62
1
100
AcDbPolyline
 90
2
 70
0
 10
31.304985
 20
283.457492
 30
0.0
 10
169.979653
 20
283.457492
 30
0.0
  0
SPLINE
  5
12c
100
AcDbEntity
  8
borad
 62
1
100
AcDbSpline
 70
8
 71
3
 72
8
 73
4
 74
0
 40
0
 40
0
 40
0
 40
0
 40
1
 40
1
 40
1
 40
1
 10
188.877291
 20
98.176959
 30
0.0
 10
188.877291
 20
93.164994
 30
0.0
 10
186.886296
 20
88.358305
 30
0.0
 10
183.342301
 20
84.814311
 30
0.0
  0
SPLINE
  5
12d
100
AcDbEntity
  8
borad
 62
1
100
AcDbSpline
 70
8
 71
3
 72
8
 73
4
 74
0
 40
0
 40
0
 40
0
 40
0
 40
1
 40
1
 40
1
 40
1
 10
183.342301
 20
84.814311
 30
0.0
 10
179.798307
 20
81.270316
 30
0.0
 10
174.991619
 20
79.279321
 30
0.0
 10
169.979653
 20
79.279321
 30
0.0
  0
LWPOLYLINE
  5
12e
100
AcDbEntity
  8
borad
 62
1
100
AcDbPolyline
 90
2
 70
0
 10
188.877291
 20
264.559854
 30
0.0
 10
188.877291
 20
98.176959
 30
0.0
  0
SPLINE
  5
12f
100
AcDbEntity
  8
borad
 62
1
100
AcDbSpline
 70
8
 71
3
 72
8
 73
4
 74
0
 40
0
 40
0
 40
0
 40
0
 40
1
 40
1
 40
1
 40
1
 10
31.304985
 20
79.279321
 30
0.0
 10
26.293020
 20
79.279321
 30
0.0
 10
21.486332
 20
81.270316
 30
0.0
 10
17.942337
 20
84.814311
 30
0.0
  0
SPLINE
  5
130
100
AcDbEntity
  8
borad
 62
1
100
AcDbSpline
 70
8
 71
3
 72
8
 73
4
 74
0
 40
0
 40
0
 40
0
 40
0
 40
1
 40
1
 40
1
 40
1
 10
17.942337
 20
84.814311
 30
0.0
 10
14.398343
 20
88.358305
 30
0.0
 10
12.407347
 20
93.164994
 30
0.0
 10
12.407347
 20
98.176959
 30
0.0
  0
LWPOLYLINE
  5
131
100
AcDbEntity
  8
borad
 62
1
100
AcDbPolyline
 90
2
 70
0
 10
169.979653
 20
79.279321
 30
0.0
 10
31.304985
 20
79.279321
 30
0.0
  0
SPLINE
  5
132
100
AcDbEntity
  8
borad
 62
1
100
AcDbSpline
 70
8
 71
3
 72
8
 73
4
 74
0
 40
0
 40
0
 40
0
 40
0
 40
1
 40
1
 40
1
 40
1
 10
12.407347
 20
264.559854
 30
0.0
 10
12.407347
 20
269.571819
 30
0.0
 10
14.398343
 20
274.378507
 30
0.0
 10
17.942337
 20
277.922502
 30
0.0
  0
SPLINE
  5
133
100
AcDbEntity
  8
borad
 62
1
100
AcDbSpline
 70
8
 71
3
 72
8
 73
4
 74
0
 40
0
 40
0
 40
0
 40
0
 40
1
 40
1
 40
1
 40
1
 10
17.942337
 20
277.922502
 30
0.0
 10
21.486332
 20
281.466496
 30
0.0
 10
26.293020
 20
283.457492
 30
0.0
 10
31.304985
 20
283.457492
 30
0.0
  0
LWPOLYLINE
  5
134
100
AcDbEntity
  8
borad
 62
1
100
AcDbPolyline
 90
2
 70
0
 10
12.407347
 20
98.176959
 30
0.0
 10
12.407347
 20
264.559854
 30
0.0
  0
SPLINE
  5
135
100
AcDbEntity
  8
borad
 62
1
100
AcDbSpline
 70
8
 71
3
 72
8
 73
4
 74
0
 40
0
 40
0
 40
0
 40
0
 40
1
 40
1
 40
1
 40
1
 10
28.194614
 20
272.837012
 30
0.0
 10
26.123504
 20
272.837012
 30
0.0
 10
24.256330
 20
271.589406
 30
0.0
 10
23.463750
 20
269.675950
 30
0.0
  0
SPLINE
  5
136
100
AcDbEntity
  8
borad
 62
1
100
AcDbSpline
 70
8
 71
3
 72
8
 73
4
 74
0
 40
0
 40
0
 40
0
 40
0
 40
1
 40
1
 40
1
 40
1
 10
23.463750
 20
269.675950
 30
0.0
 10
22.671171
 20
267.762494
 30
0.0
 10
23.109272
 20
265.560011
 30
0.0
 10
24.573768
 20
264.095516
 30
0.0
  0
SPLINE
  5
137
100
AcDbEntity
  8
borad
 62
1
100
AcDbSpline
 70
8
 71
3
 72
8
 73
4
 74
0
 40
0
 40
0
 40
0
 40
0
 40
1
 40
1
 40
1
 40
1
 10
24.573768
 20
264.095516
 30
0.0
 10
26.038263
 20
262.631020
 30
0.0
 10
28.240746
 20
262.192919
 30
0.0
 10
30.154202
 20
262.985498
 30
0.0
  0
SPLINE
  5
138
100
AcDbEntity
  8
borad
 62
1
100
AcDbSpline
 70
8
 71
3
 72
8
 73
4
 74
0
 40
0
 40
0
 40
0
 40
0
 40
1
 40
1
 40
1
 40
1
 10
30.154202
 20
262.985498
 30
0.0
 10
32.067658
 20
263.778078
 30
0.0
 10
33.315264
 20
265.645253
 30
0.0
 10
33.315264
 20
267.716362
 30
0.0
  0
SPLINE
  5
139
100
AcDbEntity
  8
borad
 62
1
100
AcDbSpline
 70
8
 71
3
 72
8
 73
4
 74
0
 40
0
 40
0
 40
0
 40
0
 40
1
 40
1
 40
1
 40
1
 10
33.315264
 20
267.716362
 30
0.0
 10
33.315264
 20
269.074443
 30
0.0
 10
32.775769
 20
270.376900
 30
0.0
 10
31.815461
 20
271.337209
 30
0.0
  0
SPLINE
  5
13a
100
AcDbEntity
  8
borad
 62
1
100
AcDbSpline
 70
8
 71
3
 72
8
 73
4
 74
0
 40
0
 40
0
 40
0
 40
0
 40
1
 40
1
 40
1
 40
1
 10
31.815461
 20
271.337209
 30
0.0
 10
30.855152
 20
272.297517
 30
0.0
 10
29.552695
 20
272.837012
 30
0.0
 10
28.194614
 20
272.837012
 30
0.0
  0
LWPOLYLINE
  5
13b
100
AcDbEntity
  8
borad
 62
1
100
AcDbPolyline
 90
1
 70
1
 10
31.304985
 20
283.457492
 30
0.0
  0
SPLINE
  5
13c
100
AcDbEntity
  8
borad
 62
1
100
AcDbSpline
 70
8
 71
3
 72
8
 73
4
 74
0
 40
0
 40
0
 40
0
 40
0
 40
1
 40
1
 40
1
 40
1
 10
170.620860
 20
272.837012
 30
0.0
 10
168.549751
 20
272.837012
 30
0.0
 10
166.682576
 20
271.589406
 30
0.0
 10
165.889997
 20
269.675950
 30
0.0
  0
SPLINE
  5
13d
100
AcDbEntity
  8
borad
 62
1
100
AcDbSpline
 70
8
 71
3
 72
8
 73
4
 74
0
 40
0
 40
0
 40
0
 40
0
 40
1
 40
1
 40
1
 40
1
 10
165.889997
 20
269.675950
 30
0.0
 10
165.097417
 20
267.762494
 30
0.0
 10
165.535518
 20
265.560011
 30
0.0
 10
167.000014
 20
264.095516
 30
0.0
  0
SPLINE
  5
13e
100
AcDbEntity
  8
borad
 62
1
100
AcDbSpline
 70
8
 71
3
 72
8
 73
4
 74
0
 40
0
 40
0
 40
0
 40
0
 40
1
 40
1
 40
1
 40
1
 10
167.000014
 20
264.095516
 30
0.0
 10
168.464510
 20
262.631020
 30
0.0
 10
170.666993
 20
262.192919
 30
0.0
 10
172.580448
 20
262.985498
 30
0.0
  0
SPLINE
  5
13f
100
AcDbEntity
  8
borad
 62
1
100
AcDbSpline
 70
8
 71
3
 72
8
 73
4
 74
0
 40
0
 40
0
 40
0
 40
0
 40
1
 40
1
 40
1
 40
1
 10
172.580448
 20
262.985498
 30
0.0
 10
174.493904
 20
263.778078
 30
0.0
 10
175.741511
 20
265.645253
 30
0.0
 10
175.741511
 20
267.716362
 30
0.0
  0
SPLINE
  5
140
100
AcDbEntity
  8
borad
 62
1
100
AcDbSpline
 70
8
 71
3
 72
8
 73
4
 74
0
 40
0
 40
0
 40
0
 40
0
 40
1
 40
1
 40
1
 40
1
 10
175.741511
 20
267.716362
 30
0.0
 10
175.741511
 20
269.074443
 30
0.0
 10
175.202015
 20
270.376900
 30
0.0
 10
174.241707
 20
271.337209
 30
0.0
  0
SPLINE
  5
141
100
AcDbEntity
  8
borad
 62
1
100
AcDbSpline
 70
8
 71
3
 72
8
 73
4
 74
0
 40
0
 40
0
 40
0
 40
0
 40
1
 40
1
 40
1
 40
1
 10
174.241707
 20
271.337209
 30
0.0
 10
173.281399
 20
272.297517
 30
0.0
 10
171.978941
 20
272.837012
 30
0.0
 10
170.620860
 20
272.837012
 30
0.0
  0
LWPOLYLINE
  5
142
100
AcDbEntity
  8
borad
 62
1
100
AcDbPolyline
 90
1
 70
1
 10
28.194614
 20
272.837012
 30
0.0
  0
SPLINE
  5
143
100
AcDbEntity
  8
borad
 62
1
100
AcDbSpline
 70
8
 71
3
 72
8
 73
4
 74
0
 40
0
 40
0
 40
0
 40
0
 40
1
 40
1
 40
1
 40
1
 10
28.194614
 20
102.651045
 30
0.0
 10
26.123504
 20
102.651045
 30
0.0
 10
24.256330
 20
101.403439
 30
0.0
 10
23.463750
 20
99.489983
 30
0.0
  0
SPLINE
  5
144
100
AcDbEntity
  8
borad
 62
1
100
AcDbSpline
 70
8
 71
3
 72
8
 73
4
 74
0
 40
0
 40
0
 40
0
 40
0
 40
1
 40
1
 40
1
 40
1
 10
23.463750
 20
99.489983
 30
0.0
 10
22.671171
 20
97.576527
 30
0.0
 10
23.109272
 20
95.374044
 30
0.0
 10
24.573768
 20
93.909548
 30
0.0
  0
SPLINE
  5
145
100
AcDbEntity
  8
borad
 62
1
100
AcDbSpline
 70
8
 71
3
 72
8
 73
4
 74
0
 40
0
 40
0
 40
0
 40
0
 40
1
 40
1
 40
1
 40
1
 10
24.573768
 20
93.909548
 30
0.0
 10
26.038263
 20
92.445053
 30
0.0
 10
28.240746
 20
92.006952
 30
0.0
 10
30.154202
 20
92.799531
 30
0.0
  0
SPLINE
  5
146
100
AcDbEntity
  8
borad
 62
1
100
AcDbSpline
 70
8
 71
3
 72
8
 73
4
 74
0
 40
0
 40
0
 40
0
 40
0
 40
1
 40
1
 40
1
 40
1
 10
30.154202
 20
92.799531
 30
0.0
 10
32.067658
 20
93.592110
 30
0.0
 10
33.315264
 20
95.459285
 30
0.0
 10
33.315264
 20
97.530395
 30
0.0
  0
SPLINE
  5
147
100
AcDbEntity
  8
borad
 62
1
100
AcDbSpline
 70
8
 71
3
 72
8
 73
4
 74
0
 40
0
 40
0
 40
0
 40
0
 40
1
 40
1
 40
1
 40
1
 10
33.315264
 20
97.530395
 30
0.0
 10
33.315264
 20
98.888476
 30
0.0
 10
32.775769
 20
100.190933
 30
0.0
 10
31.815461
 20
101.151241
 30
0.0
  0
SPLINE
  5
148
100
AcDbEntity
  8
borad
 62
1
100
AcDbSpline
 70
8
 71
3
 72
8
 73
4
 74
0
 40
0
 40
0
 40
0
 40
0
 40
1
 40
1
 40
1
 40
1
 10
31.815461
 20
101.151241
 30
0.0
 10
30.855152
 20
102.111550
 30
0.0
 10
29.552695
 20
102.651045
 30
0.0
 10
28.194614
 20
102.651045
 30
0.0
  0
LWPOLYLINE
  5
149
100
AcDbEntity
  8
borad
 62
1
100
AcDbPolyline
 90
1
 70
1
 10
170.620860
 20
272.837012
 30
0.0
  0
SPLINE
  5
14a
100
AcDbEntity
  8
borad
 62
1
100
AcDbSpline
 70
8
 71
3
 72
8
 73
4
 74
0
 40
0
 40
0
 40
0
 40
0
 40
1
 40
1
 40
1
 40
1
 10
170.620860
 20
102.651045
 30
0.0
 10
168.549751
 20
102.651045
 30
0.0
 10
166.682576
 20
101.403439
 30
0.0
 10
165.889997
 20
99.489983
 30
0.0
  0
SPLINE
  5
14b
100
AcDbEntity
  8
borad
 62
1
100
AcDbSpline
 70
8
 71
3
 72
8
 73
4
 74
0
 40
0
 40
0
 40
0
 40
0
 40
1
 40
1
 40
1
 40
1
 10
165.889997
 20
99.489983
 30
0.0
 10
165.097417
 20
97.576527
 30
0.0
 10
165.535518
 20
95.374044
 30
0.0
 10
167.000014
 20
93.909548
 30
0.0
  0
SPLINE
  5
14c
100
AcDbEntity
  8
borad
 62
1
100
AcDbSpline
 70
8
 71
3
 72
8
 73
4
 74
0
 40
0
 40
0
 40
0
 40
0
 40
1
 40
1
 40
1
 40
1
 10
167.000014
 20
93.909548
 30
0.0
 10
168.464510
 20
92.445053
 30
0.0
 10
170.666993
 20
92.006952
 30
0.0
 10
172.580448
 20
92.799531
 30
0.0
  0
SPLINE
  5
14d
100
AcDbEntity
  8
borad
 62
1
100
AcDbSpline
 70
8
 71
3
 72
8
 73
4
 74
0
 40
0
 40
0
 40
0
 40
0
 40
1
 40
1
 40
1
 40
1
 10
172.580448
 20
92.799531
 30
0.0
 10
174.493904
 20
93.592110
 30
0.0
 10
175.741511
 20
95.459285
 30
0.0
 10
175.741511
 20
97.530395
 30
0.0
  0
SPLINE
  5
14e
100
AcDbEntity
  8
borad
 62
1
100
AcDbSpline
 70
8
 71
3
 72
8
 73
4
 74
0
 40
0
 40
0
 40
0
 40
0
 40
1
 40
1
 40
1
 40
1
 10
175.741511
 20
97.530395
 30
0.0
 10
175.741511
 20
98.888476
 30
0.0
 10
175.202015
 20
100.190933
 30
0.0
 10
174.241707
 20
101.151241
 30
0.0
  0
SPLINE
  5
14f
100
AcDbEntity
  8
borad
 62
1
100
AcDbSpline
 70
8
 71
3
 72
8
 73
4
 74
0
 40
0
 40
0
 40
0
 40
0
 40
1
 40
1
 40
1
 40
1
 10
174.241707
 20
101.151241
 30
0.0
 10
173.281399
 20
102.111550
 30
0.0
 10
171.978941
 20
102.651045
 30
0.0
 10
170.620860
 20
102.651045
 30
0.0
  0
LWPOLYLINE
  5
150
100
AcDbEntity
  8
borad
 62
1
100
AcDbPolyline
 90
1
 70
1
 10
28.194614
 20
102.651045
 30
0.0
  0
LWPOLYLINE
  5
151
100
AcDbEntity
  8
borad
 62
1
100
AcDbPolyline
 90
1
 70
1
 10
170.620860
 20
102.651045
 30
0.0
  0
SPLINE
  5
152
100
AcDbEntity
  8
borad
 62
1
100
AcDbSpline
 70
8
 71
3
 72
8
 73
4
 74
0
 40
0
 40
0
 40
0
 40
0
 40
1
 40
1
 40
1
 40
1
 10
78.409576
 20
273.919413
 30
0.0
 10
77.078148
 20
273.919413
 30
0.0
 10
75.877822
 20
273.117380
 30
0.0
 10
75.368306
 20
271.887302
 30
0.0
  0
SPLINE
  5
153
100
AcDbEntity
  8
borad
 62
1
100
AcDbSpline
 70
8
 71
3
 72
8
 73
4
 74
0
 40
0
 40
0
 40
0
 40
0
 40
1
 40
1
 40
1
 40
1
 10
75.368306
 20
271.887302
 30
0.0
 10
74.858791
 20
270.657223
 30
0.0
 10
75.140427
 20
269.241341
 30
0.0
 10
76.081889
 20
268.299879
 30
0.0
  0
SPLINE
  5
154
100
AcDbEntity
  8
borad
 62
1
100
AcDbSpline
 70
8
 71
3
 72
8
 73
4
 74
0
 40
0
 40
0
 40
0
 40
0
 40
1
 40
1
 40
1
 40
1
 10
76.081889
 20
268.299879
 30
0.0
 10
77.023351
 20
267.358418
 30
0.0
 10
78.439232
 20
267.076781
 30
0.0
 10
79.669311
 20
267.586297
 30
0.0
  0
SPLINE
  5
155
100
AcDbEntity
  8
borad
 62
1
100
AcDbSpline
 70
8
 71
3
 72
8
 73
4
 74
0
 40
0
 40
0
 40
0
 40
0
 40
1
 40
1
 40
1
 40
1
 10
79.669311
 20
267.586297
 30
0.0
 10
80.899390
 20
268.095812
 30
0.0
 10
81.701423
 20
269.296139
 30
0.0
 10
81.701423
 20
270.627566
 30
0.0
  0
SPLINE
  5
156
100
AcDbEntity
  8
borad
 62
1
100
AcDbSpline
 70
8
 71
3
 72
8
 73
4
 74
0
 40
0
 40
0
 40
0
 40
0
 40
1
 40
1
 40
1
 40
1
 10
81.701423
 20
270.627566
 30
0.0
 10
81.701423
 20
271.500618
 30
0.0
 10
81.354604
 20
272.337912
 30
0.0
 10
80.737263
 20
272.955253
 30
0.0
  0
SPLINE
  5
157
100
AcDbEntity
  8
borad
 62
1
100
AcDbSpline
 70
8
 71
3
 72
8
 73
4
 74
0
 40
0
 40
0
 40
0
 40
0
 40
1
 40
1
 40
1
 40
1
 10
80.737263
 20
272.955253
 30
0.0
 10
80.119922
 20
273.572594
 30
0.0
 10
79.282628
 20
273.919413
 30
0.0
 10
78.409576
 20
273.919413
 30
0.0
  0
LWPOLYLINE
  5
158
100
AcDbEntity
  8
borad
 62
1
100
AcDbPolyline
 90
4
 70
1
 10
60.957290
 20
277.389810
 30
0.0
 10
140.327369
 20
277.389810
 30
0.0
 10
140.327369
 20
84.633904
 30
0.0
 10
60.957290
 20
84.633904
 30
0.0
  0
SPLINE
  5
159
100
AcDbEntity
  8
borad
 62
1
100
AcDbSpline
 70
8
 71
3
 72
8
 73
4
 74
0
 40
0
 40
0
 40
0
 40
0
 40
1
 40
1
 40
1
 40
1
 10
121.219971
 20
273.919413
 30
0.0
 10
119.888543
 20
273.919413
 30
0.0
 10
118.688217
 20
273.117380
 30
0.0
 10
118.178701
 20
271.887302
 30
0.0
  0
SPLINE
  5
15a
100
AcDbEntity
  8
borad
 62
1
100
AcDbSpline
 70
8
 71
3
 72
8
 73
4
 74
0
 40
0
 40
0
 40
0
 40
0
 40
1
 40
1
 40
1
 40
1
 10
118.178701
 20
271.887302
 30
0.0
 10
117.669186
 20
270.657223
 30
0.0
 10
117.950822
 20
269.241341
 30
0.0
 10
118.892284
 20
268.299879
 30
0.0
  0
SPLINE
  5
15b
100
AcDbEntity
  8
borad
 62
1
100
AcDbSpline
 70
8
 71
3
 72
8
 73
4
 74
0
 40
0
 40
0
 40
0
 40
0
 40
1
 40
1
 40
1
 40
1
 10
118.892284
 20
268.299879
 30
0.0
 10
119.833745
 20
267.358418
 30
0.0
 10
121.249627
 20
267.076781
 30
0.0
 10
122.479706
 20
267.586297
 30
0.0
  0
SPLINE
  5
15c
100
AcDbEntity
  8
borad
 62
1
100
AcDbSpline
 70
8
 71
3
 72
8
 73
4
 74
0
 40
0
 40
0
 40
0
 40
0
 40
1
 40
1
 40
1
 40
1
 10
122.479706
 20
267.586297
 30
0.0
 10
123.709785
 20
268.095812
 30
0.0
 10
124.511818
 20
269.296139
 30
0.0
 10
124.511818
 20
270.627566
 30
0.0
  0
SPLINE
  5
15d
100
AcDbEntity
  8
borad
 62
1
100
AcDbSpline
 70
8
 71
3
 72
8
 73
4
 74
0
 40
0
 40
0
 40
0
 40
0
 40
1
 40
1
 40
1
 40
1
 10
124.511818
 20
270.627566
 30
0.0
 10
124.511818
 20
271.500618
 30
0.0
 10
124.164999
 20
272.337912
 30
0.0
 10
123.547658
 20
272.955253
 30
0.0
  0
SPLINE
  5
15e
100
AcDbEntity
  8
borad
 62
1
100
AcDbSpline
 70
8
 71
3
 72
8
 73
4
 74
0
 40
0
 40
0
 40
0
 40
0
 40
1
 40
1
 40
1
 40
1
 10
123.547658
 20
272.955253
 30
0.0
 10
122.930317
 20
273.572594
 30
0.0
 10
122.093023
 20
273.919413
 30
0.0
 10
121.219971
 20
273.919413
 30
0.0
  0
LWPOLYLINE
  5
15f
100
AcDbEntity
  8
borad
 62
1
100
AcDbPolyline
 90
1
 70
1
 10
78.409576
 20
273.919413
 30
0.0
  0
SPLINE
  5
160
100
AcDbEntity
  8
borad
 62
1
100
AcDbSpline
 70
8
 71
3
 72
8
 73
4
 74
0
 40
0
 40
0
 40
0
 40
0
 40
1
 40
1
 40
1
 40
1
 10
78.652774
 20
95.288015
 30
0.0
 10
77.321346
 20
95.288015
 30
0.0
 10
76.121019
 20
94.485983
 30
0.0
 10
75.611504
 20
93.255904
 30
0.0
  0
SPLINE
  5
161
100
AcDbEntity
  8
borad
 62
1
100
AcDbSpline
 70
8
 71
3
 72
8
 73
4
 74
0
 40
0
 40
0
 40
0
 40
0
 40
1
 40
1
 40
1
 40
1
 10
75.611504
 20
93.255904
 30
0.0
 10
75.101989
 20
92.025825
 30
0.0
 10
75.383625
 20
90.609943
 30
0.0
 10
76.325086
 20
89.668482
 30
0.0
  0
SPLINE
  5
162
100
AcDbEntity
  8
borad
 62
1
100
AcDbSpline
 70
8
 71
3
 72
8
 73
4
 74
0
 40
0
 40
0
 40
0
 40
0
 40
1
 40
1
 40
1
 40
1
 10
76.325086
 20
89.668482
 30
0.0
 10
77.266548
 20
88.727020
 30
0.0
 10
78.682430
 20
88.445384
 30
0.0
 10
79.912509
 20
88.954899
 30
0.0
  0
SPLINE
  5
163
100
AcDbEntity
  8
borad
 62
1
100
AcDbSpline
 70
8
 71
3
 72
8
 73
4
 74
0
 40
0
 40
0
 40
0
 40
0
 40
1
 40
1
 40
1
 40
1
 10
79.912509
 20
88.954899
 30
0.0
 10
81.142587
 20
89.464414
 30
0.0
 10
81.944620
 20
90.664741
 30
0.0
 10
81.944620
 20
91.996169
 30
0.0
  0
SPLINE
  5
164
100
AcDbEntity
  8
borad
 62
1
100
AcDbSpline
 70
8
 71
3
 72
8
 73
4
 74
0
 40
0
 40
0
 40
0
 40
0
 40
1
 40
1
 40
1
 40
1
 10
81.944620
 20
91.996169
 30
0.0
 10
81.944620
 20
92.869221
 30
0.0
 10
81.597802
 20
93.706515
 30
0.0
 10
80.980461
 20
94.323856
 30
0.0
  0
SPLINE
  5
165
100
AcDbEntity
  8
borad
 62
1
100
AcDbSpline
 70
8
 71
3
 72
8
 73
4
 74
0
 40
0
 40
0
 40
0
 40
0
 40
1
 40
1
 40
1
 40
1
 10
80.980461
 20
94.323856
 30
0.0
 10
80.363120
 20
94.941197
 30
0.0
 10
79.525826
 20
95.288015
 30
0.0
 10
78.652774
 20
95.288015
 30
0.0
  0
LWPOLYLINE
  5
166
100
AcDbEntity
  8
borad
 62
1
100
AcDbPolyline
 90
1
 70
1
 10
121.219971
 20
273.919413
 30
0.0
  0
SPLINE
  5
167
100
AcDbEntity
  8
borad
 62
1
100
AcDbSpline
 70
8
 71
3
 72
8
 73
4
 74
0
 40
0
 40
0
 40
0
 40
0
 40
1
 40
1
 40
1
 40
1
 10
121.463172
 20
95.288015
 30
0.0
 10
120.131745
 20
95.288015
 30
0.0
 10
118.931418
 20
94.485983
 30
0.0
 10
118.421903
 20
93.255904
 30
0.0
  0
SPLINE
  5
168
100
AcDbEntity
  8
borad
 62
1
100
AcDbSpline
 70
8
 71
3
 72
8
 73
4
 74
0
 40
0
 40
0
 40
0
 40
0
 40
1
 40
1
 40
1
 40
1
 10
118.421903
 20
93.255904
 30
0.0
 10
117.912387
 20
92.025825
 30
0.0
 10
118.194024
 20
90.609943
 30
0.0
 10
119.135485
 20
89.668482
 30
0.0
  0
SPLINE
  5
169
100
AcDbEntity
  8
borad
 62
1
100
AcDbSpline
 70
8
 71
3
 72
8
 73
4
 74
0
 40
0
 40
0
 40
0
 40
0
 40
1
 40
1
 40
1
 40
1
 10
119.135485
 20
89.668482
 30
0.0
 10
120.076947
 20
88.727020
 30
0.0
 10
121.492829
 20
88.445384
 30
0.0
 10
122.722907
 20
88.954899
 30
0.0
  0
SPLINE
  5
16a
100
AcDbEntity
  8
borad
 62
1
100
AcDbSpline
 70
8
 71
3
 72
8
 73
4
 74
0
 40
0
 40
0
 40
0
 40
0
 40
1
 40
1
 40
1
 40
1
 10
122.722907
 20
88.954899
 30
0.0
 10
123.952986
 20
89.464414
 30
0.0
 10
124.755019
 20
90.664741
 30
0.0
 10
124.755019
 20
91.996169
 30
0.0
  0
SPLINE
  5
16b
100
AcDbEntity
  8
borad
 62
1
100
AcDbSpline
 70
8
 71
3
 72
8
 73
4
 74
0
 40
0
 40
0
 40
0
 40
0
 40
1
 40
1
 40
1
 40
1
 10
124.755019
 20
91.996169
 30
0.0
 10
124.755019
 20
92.869221
 30
0.0
 10
124.408200
 20
93.706515
 30
0.0
 10
123.790859
 20
94.323856
 30
0.0
  0
SPLINE
  5
16c
100
AcDbEntity
  8
borad
 62
1
100
AcDbSpline
 70
8
 71
3
 72
8
 73
4
 74
0
 40
0
 40
0
 40
0
 40
0
 40
1
 40
1
 40
1
 40
1
 10
123.790859
 20
94.323856
 30
0.0
 10
123.173518
 20
94.941197
 30
0.0
 10
122.336224
 20
95.288015
 30
0.0
 10
121.463172
 20
95.288015
 30
0.0
  0
LWPOLYLINE
  5
16d
100
AcDbEntity
  8
borad
 62
1
100
AcDbPolyline
 90
1
 70
1
 10
78.652774
 20
95.288015
 30
0.0
  0
LWPOLYLINE
  5
16e
100
AcDbEntity
  8
borad
 62
1
100
AcDbPolyline
 90
1
 70
1
 10
121.463172
 20
95.288015
 30
0.0
  0
SPLINE
  5
16f
100
AcDbEntity
  8
borad
 62
1
100
AcDbSpline
 70
8
 71
3
 72
8
 73
4
 74
0
 40
0
 40
0
 40
0
 40
0
 40
1
 40
1
 40
1
 40
1
 10
346.449592
 20
283.457492
 30
0.0
 10
351.461558
 20
283.457492
 30
0.0
 10
356.268246
 20
281.466496
 30
0.0
 10
359.812240
 20
277.922502
 30
0.0
  0
SPLINE
  5
170
100
AcDbEntity
  8
borad
 62
1
100
AcDbSpline
 70
8
 71
3
 72
8
 73
4
 74
0
 40
0
 40
0
 40
0
 40
0
 40
1
 40
1
 40
1
 40
1
 10
359.812240
 20
277.922502
 30
0.0
 10
363.356235
 20
274.378507
 30
0.0
 10
365.347230
 20
269.571819
 30
0.0
 10
365.347230
 20
264.559854
 30
0.0
  0
LWPOLYLINE
  5
171
100
AcDbEntity
  8
borad
 62
1
100
AcDbPolyline
 90
2
 70
0
 10
207.774924
 20
283.457492
 30
0.0
 10
346.449592
 20
283.457492
 30
0.0
  0
SPLINE
  5
172
100
AcDbEntity
  8
borad
 62
1
100
AcDbSpline
 70
8
 71
3
 72
8
 73
4
 74
0
 40
0
 40
0
 40
0
 40
0
 40
1
 40
1
 40
1
 40
1
 10
365.347230
 20
98.176959
 30
0.0
 10
365.347230
 20
93.164994
 30
0.0
 10
363.356235
 20
88.358305
 30
0.0
 10
359.812240
 20
84.814311
 30
0.0
  0
SPLINE
  5
173
100
AcDbEntity
  8
borad
 62
1
100
AcDbSpline
 70
8
 71
3
 72
8
 73
4
 74
0
 40
0
 40
0
 40
0
 40
0
 40
1
 40
1
 40
1
 40
1
 10
359.812240
 20
84.814311
 30
0.0
 10
356.268246
 20
81.270316
 30
0.0
 10
351.461558
 20
79.279321
 30
0.0
 10
346.449592
 20
79.279321
 30
0.0
  0
LWPOLYLINE
  5
174
100
AcDbEntity
  8
borad
 62
1
100
AcDbPolyline
 90
2
 70
0
 10
365.347230
 20
264.559854
 30
0.0
 10
365.347230
 20
98.176959
 30
0.0
  0
SPLINE
  5
175
100
AcDbEntity
  8
borad
 62
1
100
AcDbSpline
 70
8
 71
3
 72
8
 73
4
 74
0
 40
0
 40
0
 40
0
 40
0
 40
1
 40
1
 40
1
 40
1
 10
207.774924
 20
79.279321
 30
0.0
 10
202.762959
 20
79.279321
 30
0.0
 10
197.956271
 20
81.270316
 30
0.0
 10
194.412276
 20
84.814311
 30
0.0
  0
SPLINE
  5
176
100
AcDbEntity
  8
borad
 62
1
100
AcDbSpline
 70
8
 71
3
 72
8
 73
4
 74
0
 40
0
 40
0
 40
0
 40
0
 40
1
 40
1
 40
1
 40
1
 10
194.412276
 20
84.814311
 30
0.0
 10
190.868282
 20
88.358305
 30
0.0
 10
188.877286
 20
93.164994
 30
0.0
 10
188.877286
 20
98.176959
 30
0.0
  0
LWPOLYLINE
  5
177
100
AcDbEntity
  8
borad
 62
1
100
AcDbPolyline
 90
2
 70
0
 10
346.449592
 20
79.279321
 30
0.0
 10
207.774924
 20
79.279321
 30
0.0
  0
SPLINE
  5
178
100
AcDbEntity
  8
borad
 62
1
100
AcDbSpline
 70
8
 71
3
 72
8
 73
4
 74
0
 40
0
 40
0
 40
0
 40
0
 40
1
 40
1
 40
1
 40
1
 10
188.877286
 20
264.559854
 30
0.0
 10
188.877286
 20
269.571819
 30
0.0
 10
190.868282
 20
274.378507
 30
0.0
 10
194.412276
 20
277.922502
 30
0.0
  0
SPLINE
  5
179
100
AcDbEntity
  8
borad
 62
1
100
AcDbSpline
 70
8
 71
3
 72
8
 73
4
 74
0
 40
0
 40
0
 40
0
 40
0
 40
1
 40
1
 40
1
 40
1
 10
194.412276
 20
277.922502
 30
0.0
 10
197.956271
 20
281.466496
 30
0.0
 10
202.762959
 20
283.457492
 30
0.0
 10
207.774924
 20
283.457492
 30
0.0
  0
LWPOLYLINE
  5
17a
100
AcDbEntity
  8
borad
 62
1
100
AcDbPolyline
 90
2
 70
0
 10
188.877286
 20
98.176959
 30
0.0
 10
188.877286
 20
264.559854
 30
0.0
  0
SPLINE
  5
17b
100
AcDbEntity
  8
borad
 62
1
100
AcDbSpline
 70
8
 71
3
 72
8
 73
4
 74
0
 40
0
 40
0
 40
0
 40
0
 40
1
 40
1
 40
1
 40
1
 10
204.664551
 20
272.837012
 30
0.0
 10
202.593441
 20
272.837012
 30
0.0
 10
200.726266
 20
271.589406
 30
0.0
 10
199.933687
 20
269.675950
 30
0.0
  0
SPLINE
  5
17c
100
AcDbEntity
  8
borad
 62
1
100
AcDbSpline
 70
8
 71
3
 72
8
 73
4
 74
0
 40
0
 40
0
 40
0
 40
0
 40
1
 40
1
 40
1
 40
1
 10
199.933687
 20
269.675950
 30
0.0
 10
199.141107
 20
267.762494
 30
0.0
 10
199.579208
 20
265.560011
 30
0.0
 10
201.043704
 20
264.095516
 30
0.0
  0
SPLINE
  5
17d
100
AcDbEntity
  8
borad
 62
1
100
AcDbSpline
 70
8
 71
3
 72
8
 73
4
 74
0
 40
0
 40
0
 40
0
 40
0
 40
1
 40
1
 40
1
 40
1
 10
201.043704
 20
264.095516
 30
0.0
 10
202.508200
 20
262.631020
 30
0.0
 10
204.710683
 20
262.192919
 30
0.0
 10
206.624139
 20
262.985498
 30
0.0
  0
SPLINE
  5
17e
100
AcDbEntity
  8
borad
 62
1
100
AcDbSpline
 70
8
 71
3
 72
8
 73
4
 74
0
 40
0
 40
0
 40
0
 40
0
 40
1
 40
1
 40
1
 40
1
 10
206.624139
 20
262.985498
 30
0.0
 10
208.537594
 20
263.778078
 30
0.0
 10
209.785201
 20
265.645253
 30
0.0
 10
209.785201
 20
267.716362
 30
0.0
  0
SPLINE
  5
17f
100
AcDbEntity
  8
borad
 62
1
100
AcDbSpline
 70
8
 71
3
 72
8
 73
4
 74
0
 40
0
 40
0
 40
0
 40
0
 40
1
 40
1
 40
1
 40
1
 10
209.785201
 20
267.716362
 30
0.0
 10
209.785201
 20
269.074443
 30
0.0
 10
209.245705
 20
270.376900
 30
0.0
 10
208.285397
 20
271.337209
 30
0.0
  0
SPLINE
  5
180
100
AcDbEntity
  8
borad
 62
1
100
AcDbSpline
 70
8
 71
3
 72
8
 73
4
 74
0
 40
0
 40
0
 40
0
 40
0
 40
1
 40
1
 40
1
 40
1
 10
208.285397
 20
271.337209
 30
0.0
 10
207.325089
 20
272.297517
 30
0.0
 10
206.022631
 20
272.837012
 30
0.0
 10
204.664551
 20
272.837012
 30
0.0
  0
LWPOLYLINE
  5
181
100
AcDbEntity
  8
borad
 62
1
100
AcDbPolyline
 90
1
 70
1
 10
207.774924
 20
283.457492
 30
0.0
  0
SPLINE
  5
182
100
AcDbEntity
  8
borad
 62
1
100
AcDbSpline
 70
8
 71
3
 72
8
 73
4
 74
0
 40
0
 40
0
 40
0
 40
0
 40
1
 40
1
 40
1
 40
1
 10
347.090804
 20
272.837012
 30
0.0
 10
345.019695
 20
272.837012
 30
0.0
 10
343.152520
 20
271.589406
 30
0.0
 10
342.359940
 20
269.675950
 30
0.0
  0
SPLINE
  5
183
100
AcDbEntity
  8
borad
 62
1
100
AcDbSpline
 70
8
 71
3
 72
8
 73
4
 74
0
 40
0
 40
0
 40
0
 40
0
 40
1
 40
1
 40
1
 40
1
 10
342.359940
 20
269.675950
 30
0.0
 10
341.567361
 20
267.762494
 30
0.0
 10
342.005462
 20
265.560011
 30
0.0
 10
343.469958
 20
264.095516
 30
0.0
  0
SPLINE
  5
184
100
AcDbEntity
  8
borad
 62
1
100
AcDbSpline
 70
8
 71
3
 72
8
 73
4
 74
0
 40
0
 40
0
 40
0
 40
0
 40
1
 40
1
 40
1
 40
1
 10
343.469958
 20
264.095516
 30
0.0
 10
344.934454
 20
262.631020
 30
0.0
 10
347.136937
 20
262.192919
 30
0.0
 10
349.050392
 20
262.985498
 30
0.0
  0
SPLINE
  5
185
100
AcDbEntity
  8
borad
 62
1
100
AcDbSpline
 70
8
 71
3
 72
8
 73
4
 74
0
 40
0
 40
0
 40
0
 40
0
 40
1
 40
1
 40
1
 40
1
 10
349.050392
 20
262.985498
 30
0.0
 10
350.963848
 20
263.778078
 30
0.0
 10
352.211455
 20
265.645253
 30
0.0
 10
352.211455
 20
267.716362
 30
0.0
  0
SPLINE
  5
186
100
AcDbEntity
  8
borad
 62
1
100
AcDbSpline
 70
8
 71
3
 72
8
 73
4
 74
0
 40
0
 40
0
 40
0
 40
0
 40
1
 40
1
 40
1
 40
1
 10
352.211455
 20
267.716362
 30
0.0
 10
352.211455
 20
269.074443
 30
0.0
 10
351.671959
 20
270.376900
 30
0.0
 10
350.711651
 20
271.337209
 30
0.0
  0
SPLINE
  5
187
100
AcDbEntity
  8
borad
 62
1
100
AcDbSpline
 70
8
 71
3
 72
8
 73
4
 74
0
 40
0
 40
0
 40
0
 40
0
 40
1
 40
1
 40
1
 40
1
 10
350.711651
 20
271.337209
 30
0.0
 10
349.751343
 20
272.297517
 30
0.0
 10
348.448885
 20
272.837012
 30
0.0
 10
347.090804
 20
272.837012
 30
0.0
  0
LWPOLYLINE
  5
188
100
AcDbEntity
  8
borad
 62
1
100
AcDbPolyline
 90
1
 70
1
 10
204.664551
 20
272.837012
 30
0.0
  0
SPLINE
  5
189
100
AcDbEntity
  8
borad
 62
1
100
AcDbSpline
 70
8
 71
3
 72
8
 73
4
 74
0
 40
0
 40
0
 40
0
 40
0
 40
1
 40
1
 40
1
 40
1
 10
204.664551
 20
102.651075
 30
0.0
 10
202.593441
 20
102.651075
 30
0.0
 10
200.726266
 20
101.403469
 30
0.0
 10
199.933687
 20
99.490013
 30
0.0
  0
SPLINE
  5
18a
100
AcDbEntity
  8
borad
 62
1
100
AcDbSpline
 70
8
 71
3
 72
8
 73
4
 74
0
 40
0
 40
0
 40
0
 40
0
 40
1
 40
1
 40
1
 40
1
 10
199.933687
 20
99.490013
 30
0.0
 10
199.141107
 20
97.576557
 30
0.0
 10
199.579208
 20
95.374074
 30
0.0
 10
201.043704
 20
93.909579
 30
0.0
  0
SPLINE
  5
18b
100
AcDbEntity
  8
borad
 62
1
100
AcDbSpline
 70
8
 71
3
 72
8
 73
4
 74
0
 40
0
 40
0
 40
0
 40
0
 40
1
 40
1
 40
1
 40
1
 10
201.043704
 20
93.909579
 30
0.0
 10
202.508200
 20
92.445083
 30
0.0
 10
204.710683
 20
92.006982
 30
0.0
 10
206.624139
 20
92.799561
 30
0.0
  0
SPLINE
  5
18c
100
AcDbEntity
  8
borad
 62
1
100
AcDbSpline
 70
8
 71
3
 72
8
 73
4
 74
0
 40
0
 40
0
 40
0
 40
0
 40
1
 40
1
 40
1
 40
1
 10
206.624139
 20
92.799561
 30
0.0
 10
208.537594
 20
93.592141
 30
0.0
 10
209.785201
 20
95.459316
 30
0.0
 10
209.785201
 20
97.530425
 30
0.0
  0
SPLINE
  5
18d
100
AcDbEntity
  8
borad
 62
1
100
AcDbSpline
 70
8
 71
3
 72
8
 73
4
 74
0
 40
0
 40
0
 40
0
 40
0
 40
1
 40
1
 40
1
 40
1
 10
209.785201
 20
97.530425
 30
0.0
 10
209.785201
 20
98.888506
 30
0.0
 10
209.245705
 20
100.190963
 30
0.0
 10
208.285397
 20
101.151272
 30
0.0
  0
SPLINE
  5
18e
100
AcDbEntity
  8
borad
 62
1
100
AcDbSpline
 70
8
 71
3
 72
8
 73
4
 74
0
 40
0
 40
0
 40
0
 40
0
 40
1
 40
1
 40
1
 40
1
 10
208.285397
 20
101.151272
 30
0.0
 10
207.325089
 20
102.111580
 30
0.0
 10
206.022631
 20
102.651075
 30
0.0
 10
204.664551
 20
102.651075
 30
0.0
  0
LWPOLYLINE
  5
18f
100
AcDbEntity
  8
borad
 62
1
100
AcDbPolyline
 90
1
 70
1
 10
347.090804
 20
272.837012
 30
0.0
  0
SPLINE
  5
190
100
AcDbEntity
  8
borad
 62
1
100
AcDbSpline
 70
8
 71
3
 72
8
 73
4
 74
0
 40
0
 40
0
 40
0
 40
0
 40
1
 40
1
 40
1
 40
1
 10
347.090804
 20
102.651075
 30
0.0
 10
345.019695
 20
102.651075
 30
0.0
 10
343.152520
 20
101.403469
 30
0.0
 10
342.359940
 20
99.490013
 30
0.0
  0
SPLINE
  5
191
100
AcDbEntity
  8
borad
 62
1
100
AcDbSpline
 70
8
 71
3
 72
8
 73
4
 74
0
 40
0
 40
0
 40
0
 40
0
 40
1
 40
1
 40
1
 40
1
 10
342.359940
 20
99.490013
 30
0.0
 10
341.567361
 20
97.576557
 30
0.0
 10
342.005462
 20
95.374074
 30
0.0
 10
343.469958
 20
93.909579
 30
0.0
  0
SPLINE
  5
192
100
AcDbEntity
  8
borad
 62
1
100
AcDbSpline
 70
8
 71
3
 72
8
 73
4
 74
0
 40
0
 40
0
 40
0
 40
0
 40
1
 40
1
 40
1
 40
1
 10
343.469958
 20
93.909579
 30
0.0
 10
344.934454
 20
92.445083
 30
0.0
 10
347.136937
 20
92.006982
 30
0.0
 10
349.050392
 20
92.799561
 30
0.0
  0
SPLINE
  5
193
100
AcDbEntity
  8
borad
 62
1
100
AcDbSpline
 70
8
 71
3
 72
8
 73
4
 74
0
 40
0
 40
0
 40
0
 40
0
 40
1
 40
1
 40
1
 40
1
 10
349.050392
 20
92.799561
 30
0.0
 10
350.963848
 20
93.592141
 30
0.0
 10
352.211455
 20
95.459316
 30
0.0
 10
352.211455
 20
97.530425
 30
0.0
  0
SPLINE
  5
194
100
AcDbEntity
  8
borad
 62
1
100
AcDbSpline
 70
8
 71
3
 72
8
 73
4
 74
0
 40
0
 40
0
 40
0
 40
0
 40
1
 40
1
 40
1
 40
1
 10
352.211455
 20
97.530425
 30
0.0
 10
352.211455
 20
98.888506
 30
0.0
 10
351.671959
 20
100.190963
 30
0.0
 10
350.711651
 20
101.151272
 30
0.0
  0
SPLINE
  5
195
100
AcDbEntity
  8
borad
 62
1
100
AcDbSpline
 70
8
 71
3
 72
8
 73
4
 74
0
 40
0
 40
0
 40
0
 40
0
 40
1
 40
1
 40
1
 40
1
 10
350.711651
 20
101.151272
 30
0.0
 10
349.751343
 20
102.111580
 30
0.0
 10
348.448885
 20
102.651075
 30
0.0
 10
347.090804
 20
102.651075
 30
0.0
  0
LWPOLYLINE
  5
196
100
AcDbEntity
  8
borad
 62
1
100
AcDbPolyline
 90
1
 70
1
 10
204.664551
 20
102.651075
 30
0.0
  0
LWPOLYLINE
  5
197
100
AcDbEntity
  8
borad
 62
1
100
AcDbPolyline
 90
1
 70
1
 10
347.090804
 20
102.651075
 30
0.0
  0
SPLINE
  5
198
100
AcDbEntity
  8
borad
 62
1
100
AcDbSpline
 70
8
 71
3
 72
8
 73
4
 74
0
 40
0
 40
0
 40
0
 40
0
 40
1
 40
1
 40
1
 40
1
 10
368.991626
 20
69.409581
 30
0.0
 10
366.531355
 20
69.409581
 30
0.0
 10
364.313338
 20
68.444419
 30
0.0
 10
363.371833
 20
66.964149
 30
0.0
  0
SPLINE
  5
199
100
AcDbEntity
  8
borad
 62
1
100
AcDbSpline
 70
8
 71
3
 72
8
 73
4
 74
0
 40
0
 40
0
 40
0
 40
0
 40
1
 40
1
 40
1
 40
1
 10
363.371833
 20
66.964149
 30
0.0
 10
362.430328
 20
65.483880
 30
0.0
 10
362.950748
 20
63.780016
 30
0.0
 10
364.690422
 20
62.647066
 30
0.0
  0
SPLINE
  5
19a
100
AcDbEntity
  8
borad
 62
1
100
AcDbSpline
 70
8
 71
3
 72
8
 73
4
 74
0
 40
0
 40
0
 40
0
 40
0
 40
1
 40
1
 40
1
 40
1
 10
364.690422
 20
62.647066
 30
0.0
 10
366.430097
 20
61.514117
 30
0.0
 10
369.046426
 20
61.175197
 30
0.0
 10
371.319421
 20
61.788345
 30
0.0
  0
SPLINE
  5
19b
100
AcDbEntity
  8
borad
 62
1
100
AcDbSpline
 70
8
 71
3
 72
8
 73
4
 74
0
 40
0
 40
0
 40
0
 40
0
 40
1
 40
1
 40
1
 40
1
 10
371.319421
 20
61.788345
 30
0.0
 10
373.592415
 20
62.401493
 30
0.0
 10
375.074446
 20
63.845959
 30
0.0
 10
375.074446
 20
65.448191
 30
0.0
  0
SPLINE
  5
19c
100
AcDbEntity
  8
borad
 62
1
100
AcDbSpline
 70
8
 71
3
 72
8
 73
4
 74
0
 40
0
 40
0
 40
0
 40
0
 40
1
 40
1
 40
1
 40
1
 10
375.074446
 20
65.448191
 30
0.0
 10
375.074446
 20
66.498817
 30
0.0
 10
374.433580
 20
67.506412
 30
0.0
 10
373.292830
 20
68.249317
 30
0.0
  0
SPLINE
  5
19d
100
AcDbEntity
  8
borad
 62
1
100
AcDbSpline
 70
8
 71
3
 72
8
 73
4
 74
0
 40
0
 40
0
 40
0
 40
0
 40
1
 40
1
 40
1
 40
1
 10
373.292830
 20
68.249317
 30
0.0
 10
372.152079
 20
68.992221
 30
0.0
 10
370.604890
 20
69.409581
 30
0.0
 10
368.991626
 20
69.409581
 30
0.0
  0
LWPOLYLINE
  5
19e
100
AcDbEntity
  8
borad
 62
1
100
AcDbPolyline
 90
4
 70
1
 10
362.944382
 20
58.428054
 30
0.0
 10
463.479815
 20
58.428054
 30
0.0
 10
463.479815
 20
-13.382969
 30
0.0
 10
362.944382
 20
-13.382969
 30
0.0
  0
SPLINE
  5
19f
100
AcDbEntity
  8
borad
 62
1
100
AcDbSpline
 70
8
 71
3
 72
8
 73
4
 74
0
 40
0
 40
0
 40
0
 40
0
 40
1
 40
1
 40
1
 40
1
 10
457.432571
 20
69.409581
 30
0.0
 10
454.972300
 20
69.409581
 30
0.0
 10
452.754283
 20
68.444419
 30
0.0
 10
451.812778
 20
66.964149
 30
0.0
  0
SPLINE
  5
1a0
100
AcDbEntity
  8
borad
 62
1
100
AcDbSpline
 70
8
 71
3
 72
8
 73
4
 74
0
 40
0
 40
0
 40
0
 40
0
 40
1
 40
1
 40
1
 40
1
 10
451.812778
 20
66.964149
 30
0.0
 10
450.871273
 20
65.483880
 30
0.0
 10
451.391693
 20
63.780016
 30
0.0
 10
453.131367
 20
62.647066
 30
0.0
  0
SPLINE
  5
1a1
100
AcDbEntity
  8
borad
 62
1
100
AcDbSpline
 70
8
 71
3
 72
8
 73
4
 74
0
 40
0
 40
0
 40
0
 40
0
 40
1
 40
1
 40
1
 40
1
 10
453.131367
 20
62.647066
 30
0.0
 10
454.871042
 20
61.514117
 30
0.0
 10
457.487371
 20
61.175197
 30
0.0
 10
459.760365
 20
61.788345
 30
0.0
  0
SPLINE
  5
1a2
100
AcDbEntity
  8
borad
 62
1
100
AcDbSpline
 70
8
 71
3
 72
8
 73
4
 74
0
 40
0
 40
0
 40
0
 40
0
 40
1
 40
1
 40
1
 40
1
 10
459.760365
 20
61.788345
 30
0.0
 10
462.033360
 20
62.401493
 30
0.0
 10
463.515391
 20
63.845959
 30
0.0
 10
463.515391
 20
65.448191
 30
0.0
  0
SPLINE
  5
1a3
100
AcDbEntity
  8
borad
 62
1
100
AcDbSpline
 70
8
 71
3
 72
8
 73
4
 74
0
 40
0
 40
0
 40
0
 40
0
 40
1
 40
1
 40
1
 40
1
 10
463.515391
 20
65.448191
 30
0.0
 10
463.515391
 20
66.498817
 30
0.0
 10
462.874525
 20
67.506412
 30
0.0
 10
461.733774
 20
68.249317
 30
0.0
  0
SPLINE
  5
1a4
100
AcDbEntity
  8
borad
 62
1
100
AcDbSpline
 70
8
 71
3
 72
8
 73
4
 74
0
 40
0
 40
0
 40
0
 40
0
 40
1
 40
1
 40
1
 40
1
 10
461.733774
 20
68.249317
 30
0.0
 10
460.593024
 20
68.992221
 30
0.0
 10
459.045835
 20
69.409581
 30
0.0
 10
457.432571
 20
69.409581
 30
0.0
  0
LWPOLYLINE
  5
1a5
100
AcDbEntity
  8
borad
 62
1
100
AcDbPolyline
 90
1
 70
1
 10
368.991626
 20
69.409581
 30
0.0
  0
SPLINE
  5
1a6
100
AcDbEntity
  8
borad
 62
1
100
AcDbSpline
 70
8
 71
3
 72
8
 73
4
 74
0
 40
0
 40
0
 40
0
 40
0
 40
1
 40
1
 40
1
 40
1
 10
457.432571
 20
-17.054251
 30
0.0
 10
454.972300
 20
-17.054251
 30
0.0
 10
452.754283
 20
-18.019413
 30
0.0
 10
451.812778
 20
-19.499683
 30
0.0
  0
SPLINE
  5
1a7
100
AcDbEntity
  8
borad
 62
1
100
AcDbSpline
 70
8
 71
3
 72
8
 73
4
 74
0
 40
0
 40
0
 40
0
 40
0
 40
1
 40
1
 40
1
 40
1
 10
451.812778
 20
-19.499683
 30
0.0
 10
450.871273
 20
-20.979952
 30
0.0
 10
451.391693
 20
-22.683817
 30
0.0
 10
453.131367
 20
-23.816766
 30
0.0
  0
SPLINE
  5
1a8
100
AcDbEntity
  8
borad
 62
1
100
AcDbSpline
 70
8
 71
3
 72
8
 73
4
 74
0
 40
0
 40
0
 40
0
 40
0
 40
1
 40
1
 40
1
 40
1
 10
453.131367
 20
-23.816766
 30
0.0
 10
454.871042
 20
-24.949715
 30
0.0
 10
457.487371
 20
-25.288635
 30
0.0
 10
459.760365
 20
-24.675487
 30
0.0
  0
SPLINE
  5
1a9
100
AcDbEntity
  8
borad
 62
1
100
AcDbSpline
 70
8
 71
3
 72
8
 73
4
 74
0
 40
0
 40
0
 40
0
 40
0
 40
1
 40
1
 40
1
 40
1
 10
459.760365
 20
-24.675487
 30
0.0
 10
462.033360
 20
-24.062339
 30
0.0
 10
463.515391
 20
-22.617873
 30
0.0
 10
463.515391
 20
-21.015641
 30
0.0
  0
SPLINE
  5
1aa
100
AcDbEntity
  8
borad
 62
1
100
AcDbSpline
 70
8
 71
3
 72
8
 73
4
 74
0
 40
0
 40
0
 40
0
 40
0
 40
1
 40
1
 40
1
 40
1
 10
463.515391
 20
-21.015641
 30
0.0
 10
463.515391
 20
-19.965015
 30
0.0
 10
462.874525
 20
-18.957420
 30
0.0
 10
461.733774
 20
-18.214515
 30
0.0
  0
SPLINE
  5
1ab
100
AcDbEntity
  8
borad
 62
1
100
AcDbSpline
 70
8
 71
3
 72
8
 73
4
 74
0
 40
0
 40
0
 40
0
 40
0
 40
1
 40
1
 40
1
 40
1
 10
461.733774
 20
-18.214515
 30
0.0
 10
460.593024
 20
-17.471611
 30
0.0
 10
459.045835
 20
-17.054251
 30
0.0
 10
457.432571
 20
-17.054251
 30
0.0
  0
LWPOLYLINE
  5
1ac
100
AcDbEntity
  8
borad
 62
1
100
AcDbPolyline
 90
1
 70
1
 10
457.432571
 20
69.409581
 30
0.0
  0
SPLINE
  5
1ad
100
AcDbEntity
  8
borad
 62
1
100
AcDbSpline
 70
8
 71
3
 72
8
 73
4
 74
0
 40
0
 40
0
 40
0
 40
0
 40
1
 40
1
 40
1
 40
1
 10
368.991626
 20
-17.054251
 30
0.0
 10
366.531355
 20
-17.054251
 30
0.0
 10
364.313338
 20
-18.019413
 30
0.0
 10
363.371833
 20
-19.499683
 30
0.0
  0
SPLINE
  5
1ae
100
AcDbEntity
  8
borad
 62
1
100
AcDbSpline
 70
8
 71
3
 72
8
 73
4
 74
0
 40
0
 40
0
 40
0
 40
0
 40
1
 40
1
 40
1
 40
1
 10
363.371833
 20
-19.499683
 30
0.0
 10
362.430328
 20
-20.979952
 30
0.0
 10
362.950748
 20
-22.683817
 30
0.0
 10
364.690422
 20
-23.816766
 30
0.0
  0
SPLINE
  5
1af
100
AcDbEntity
  8
borad
 62
1
100
AcDbSpline
 70
8
 71
3
 72
8
 73
4
 74
0
 40
0
 40
0
 40
0
 40
0
 40
1
 40
1
 40
1
 40
1
 10
364.690422
 20
-23.816766
 30
0.0
 10
366.430097
 20
-24.949715
 30
0.0
 10
369.046426
 20
-25.288635
 30
0.0
 10
371.319421
 20
-24.675487
 30
0.0
  0
SPLINE
  5
1b0
100
AcDbEntity
  8
borad
 62
1
100
AcDbSpline
 70
8
 71
3
 72
8
 73
4
 74
0
 40
0
 40
0
 40
0
 40
0
 40
1
 40
1
 40
1
 40
1
 10
371.319421
 20
-24.675487
 30
0.0
 10
373.592415
 20
-24.062339
 30
0.0
 10
375.074446
 20
-22.617873
 30
0.0
 10
375.074446
 20
-21.015641
 30
0.0
  0
SPLINE
  5
1b1
100
AcDbEntity
  8
borad
 62
1
100
AcDbSpline
 70
8
 71
3
 72
8
 73
4
 74
0
 40
0
 40
0
 40
0
 40
0
 40
1
 40
1
 40
1
 40
1
 10
375.074446
 20
-21.015641
 30
0.0
 10
375.074446
 20
-19.965015
 30
0.0
 10
374.433580
 20
-18.957420
 30
0.0
 10
373.292830
 20
-18.214515
 30
0.0
  0
SPLINE
  5
1b2
100
AcDbEntity
  8
borad
 62
1
100
AcDbSpline
 70
8
 71
3
 72
8
 73
4
 74
0
 40
0
 40
0
 40
0
 40
0
 40
1
 40
1
 40
1
 40
1
 10
373.292830
 20
-18.214515
 30
0.0
 10
372.152079
 20
-17.471611
 30
0.0
 10
370.604890
 20
-17.054251
 30
0.0
 10
368.991626
 20
-17.054251
 30
0.0
  0
LWPOLYLINE
  5
1b3
100
AcDbEntity
  8
borad
 62
1
100
AcDbPolyline
 90
1
 70
1
 10
457.432571
 20
-17.054251
 30
0.0
  0
LWPOLYLINE
  5
1b4
100
AcDbEntity
  8
borad
 62
1
100
AcDbPolyline
 90
1
 70
1
 10
368.991626
 20
-17.054251
 30
0.0
  0
LWPOLYLINE
  5
1b5
100
AcDbEntity
  8
borad
 62
1
100
AcDbPolyline
 90
4
 70
1
 10
223.044593
 20
111.499268
 30
0.0
 10
245.721759
 20
111.499268
 30
0.0
 10
245.721759
 20
88.822103
 30
0.0
 10
223.044593
 20
88.822103
 30
0.0
  0
LWPOLYLINE
  5
1b6
100
AcDbEntity
  8
borad
 62
1
100
AcDbPolyline
 90
4
 70
1
 10
222.709754
 20
160.806973
 30
0.0
 10
245.386919
 20
160.806973
 30
0.0
 10
245.386919
 20
138.129808
 30
0.0
 10
222.709754
 20
138.129808
 30
0.0
  0
SPLINE
  5
1b7
100
AcDbEntity
  8
borad
 62
1
100
AcDbSpline
 70
8
 71
3
 72
8
 73
4
 74
0
 40
0
 40
0
 40
0
 40
0
 40
1
 40
1
 40
1
 40
1
 10
309.558104
 20
167.069841
 30
0.0
 10
300.729835
 20
167.069841
 30
0.0
 10
292.770854
 20
161.751820
 30
0.0
 10
289.392421
 20
153.595563
 30
0.0
  0
SPLINE
  5
1b8
100
AcDbEntity
  8
borad
 62
1
100
AcDbSpline
 70
8
 71
3
 72
8
 73
4
 74
0
 40
0
 40
0
 40
0
 40
0
 40
1
 40
1
 40
1
 40
1
 10
289.392421
 20
153.595563
 30
0.0
 10
286.013989
 20
145.439305
 30
0.0
 10
287.881430
 20
136.051047
 30
0.0
 10
294.123959
 20
129.808518
 30
0.0
  0
SPLINE
  5
1b9
100
AcDbEntity
  8
borad
 62
1
100
AcDbSpline
 70
8
 71
3
 72
8
 73
4
 74
0
 40
0
 40
0
 40
0
 40
0
 40
1
 40
1
 40
1
 40
1
 10
294.123959
 20
129.808518
 30
0.0
 10
300.366488
 20
123.565989
 30
0.0
 10
309.754746
 20
121.698548
 30
0.0
 10
317.911003
 20
125.076981
 30
0.0
  0
SPLINE
  5
1ba
100
AcDbEntity
  8
borad
 62
1
100
AcDbSpline
 70
8
 71
3
 72
8
 73
4
 74
0
 40
0
 40
0
 40
0
 40
0
 40
1
 40
1
 40
1
 40
1
 10
317.911003
 20
125.076981
 30
0.0
 10
326.067260
 20
128.455413
 30
0.0
 10
331.385282
 20
136.414394
 30
0.0
 10
331.385282
 20
145.242663
 30
0.0
  0
SPLINE
  5
1bb
100
AcDbEntity
  8
borad
 62
1
100
AcDbSpline
 70
8
 71
3
 72
8
 73
4
 74
0
 40
0
 40
0
 40
0
 40
0
 40
1
 40
1
 40
1
 40
1
 10
331.385282
 20
145.242663
 30
0.0
 10
331.385282
 20
151.031591
 30
0.0
 10
329.085639
 20
156.583419
 30
0.0
 10
324.992249
 20
160.676809
 30
0.0
  0
SPLINE
  5
1bc
100
AcDbEntity
  8
borad
 62
1
100
AcDbSpline
 70
8
 71
3
 72
8
 73
4
 74
0
 40
0
 40
0
 40
0
 40
0
 40
1
 40
1
 40
1
 40
1
 10
324.992249
 20
160.676809
 30
0.0
 10
320.898859
 20
164.770198
 30
0.0
 10
315.347031
 20
167.069841
 30
0.0
 10
309.558104
 20
167.069841
 30
0.0
  0
LWPOLYLINE
  5
1bd
100
AcDbEntity
  8
borad
 62
1
100
AcDbPolyline
 90
4
 70
1
 10
308.925283
 20
111.499268
 30
0.0
 10
331.602448
 20
111.499268
 30
0.0
 10
331.602448
 20
88.822103
 30
0.0
 10
308.925283
 20
88.822103
 30
0.0
  0
LWPOLYLINE
  5
1be
100
AcDbEntity
  8
borad
 62
1
100
AcDbPolyline
 90
1
 70
1
 10
309.558104
 20
167.069841
 30
0.0
  0
SPLINE
  5
1bf
100
AcDbEntity
  8
pico
 62
1
100
AcDbSpline
 70
8
 71
3
 72
8
 73
4
 74
0
 40
0
 40
0
 40
0
 40
0
 40
1
 40
1
 40
1
 40
1
 10
590.730898
 20
-38.154623
 30
0.0
 10
589.399470
 20
-38.154623
 30
0.0
 10
588.199143
 20
-38.956655
 30
0.0
 10
587.689628
 20
-40.186734
 30
0.0
  0
SPLINE
  5
1c0
100
AcDbEntity
  8
pico
 62
1
100
AcDbSpline
 70
8
 71
3
 72
8
 73
4
 74
0
 40
0
 40
0
 40
0
 40
0
 40
1
 40
1
 40
1
 40
1
 10
587.689628
 20
-40.186734
 30
0.0
 10
587.180113
 20
-41.416813
 30
0.0
 10
587.461749
 20
-42.832695
 30
0.0
 10
588.403211
 20
-43.774156
 30
0.0
  0
SPLINE
  5
1c1
100
AcDbEntity
  8
pico
 62
1
100
AcDbSpline
 70
8
 71
3
 72
8
 73
4
 74
0
 40
0
 40
0
 40
0
 40
0
 40
1
 40
1
 40
1
 40
1
 10
588.403211
 20
-43.774156
 30
0.0
 10
589.344672
 20
-44.715618
 30
0.0
 10
590.760554
 20
-44.997254
 30
0.0
 10
591.990633
 20
-44.487739
 30
0.0
  0
SPLINE
  5
1c2
100
AcDbEntity
  8
pico
 62
1
100
AcDbSpline
 70
8
 71
3
 72
8
 73
4
 74
0
 40
0
 40
0
 40
0
 40
0
 40
1
 40
1
 40
1
 40
1
 10
591.990633
 20
-44.487739
 30
0.0
 10
593.220712
 20
-43.978224
 30
0.0
 10
594.022744
 20
-42.777897
 30
0.0
 10
594.022744
 20
-41.446469
 30
0.0
  0
SPLINE
  5
1c3
100
AcDbEntity
  8
pico
 62
1
100
AcDbSpline
 70
8
 71
3
 72
8
 73
4
 74
0
 40
0
 40
0
 40
0
 40
0
 40
1
 40
1
 40
1
 40
1
 10
594.022744
 20
-41.446469
 30
0.0
 10
594.022744
 20
-40.573417
 30
0.0
 10
593.675926
 20
-39.736123
 30
0.0
 10
593.058585
 20
-39.118782
 30
0.0
  0
SPLINE
  5
1c4
100
AcDbEntity
  8
pico
 62
1
100
AcDbSpline
 70
8
 71
3
 72
8
 73
4
 74
0
 40
0
 40
0
 40
0
 40
0
 40
1
 40
1
 40
1
 40
1
 10
593.058585
 20
-39.118782
 30
0.0
 10
592.441244
 20
-38.501441
 30
0.0
 10
591.603950
 20
-38.154623
 30
0.0
 10
590.730898
 20
-38.154623
 30
0.0
  0
LWPOLYLINE
  5
1c5
100
AcDbEntity
  8
pico
 62
1
100
AcDbPolyline
 90
4
 70
1
 10
573.278589
 20
-34.684226
 30
0.0
 10
652.648668
 20
-34.684226
 30
0.0
 10
652.648668
 20
-227.440131
 30
0.0
 10
573.278589
 20
-227.440131
 30
0.0
  0
SPLINE
  5
1c6
100
AcDbEntity
  8
pico
 62
1
100
AcDbSpline
 70
8
 71
3
 72
8
 73
4
 74
0
 40
0
 40
0
 40
0
 40
0
 40
1
 40
1
 40
1
 40
1
 10
633.541304
 20
-38.154623
 30
0.0
 10
632.209876
 20
-38.154623
 30
0.0
 10
631.009550
 20
-38.956655
 30
0.0
 10
630.500034
 20
-40.186734
 30
0.0
  0
SPLINE
  5
1c7
100
AcDbEntity
  8
pico
 62
1
100
AcDbSpline
 70
8
 71
3
 72
8
 73
4
 74
0
 40
0
 40
0
 40
0
 40
0
 40
1
 40
1
 40
1
 40
1
 10
630.500034
 20
-40.186734
 30
0.0
 10
629.990519
 20
-41.416813
 30
0.0
 10
630.272155
 20
-42.832695
 30
0.0
 10
631.213617
 20
-43.774156
 30
0.0
  0
SPLINE
  5
1c8
100
AcDbEntity
  8
pico
 62
1
100
AcDbSpline
 70
8
 71
3
 72
8
 73
4
 74
0
 40
0
 40
0
 40
0
 40
0
 40
1
 40
1
 40
1
 40
1
 10
631.213617
 20
-43.774156
 30
0.0
 10
632.155078
 20
-44.715618
 30
0.0
 10
633.570960
 20
-44.997254
 30
0.0
 10
634.801039
 20
-44.487739
 30
0.0
  0
SPLINE
  5
1c9
100
AcDbEntity
  8
pico
 62
1
100
AcDbSpline
 70
8
 71
3
 72
8
 73
4
 74
0
 40
0
 40
0
 40
0
 40
0
 40
1
 40
1
 40
1
 40
1
 10
634.801039
 20
-44.487739
 30
0.0
 10
636.031118
 20
-43.978224
 30
0.0
 10
636.833151
 20
-42.777897
 30
0.0
 10
636.833151
 20
-41.446469
 30
0.0
  0
SPLINE
  5
1ca
100
AcDbEntity
  8
pico
 62
1
100
AcDbSpline
 70
8
 71
3
 72
8
 73
4
 74
0
 40
0
 40
0
 40
0
 40
0
 40
1
 40
1
 40
1
 40
1
 10
636.833151
 20
-41.446469
 30
0.0
 10
636.833151
 20
-40.573417
 30
0.0
 10
636.486332
 20
-39.736123
 30
0.0
 10
635.868991
 20
-39.118782
 30
0.0
  0
SPLINE
  5
1cb
100
AcDbEntity
  8
pico
 62
1
100
AcDbSpline
 70
8
 71
3
 72
8
 73
4
 74
0
 40
0
 40
0
 40
0
 40
0
 40
1
 40
1
 40
1
 40
1
 10
635.868991
 20
-39.118782
 30
0.0
 10
635.251650
 20
-38.501441
 30
0.0
 10
634.414356
 20
-38.154623
 30
0.0
 10
633.541304
 20
-38.154623
 30
0.0
  0
LWPOLYLINE
  5
1cc
100
AcDbEntity
  8
pico
 62
1
100
AcDbPolyline
 90
1
 70
1
 10
590.730898
 20
-38.154623
 30
0.0
  0
SPLINE
  5
1cd
100
AcDbEntity
  8
pico
 62
1
100
AcDbSpline
 70
8
 71
3
 72
8
 73
4
 74
0
 40
0
 40
0
 40
0
 40
0
 40
1
 40
1
 40
1
 40
1
 10
590.974072
 20
-216.785999
 30
0.0
 10
589.642645
 20
-216.785999
 30
0.0
 10
588.442318
 20
-217.588032
 30
0.0
 10
587.932803
 20
-218.818111
 30
0.0
  0
SPLINE
  5
1ce
100
AcDbEntity
  8
pico
 62
1
100
AcDbSpline
 70
8
 71
3
 72
8
 73
4
 74
0
 40
0
 40
0
 40
0
 40
0
 40
1
 40
1
 40
1
 40
1
 10
587.932803
 20
-218.818111
 30
0.0
 10
587.423287
 20
-220.048189
 30
0.0
 10
587.704924
 20
-221.464071
 30
0.0
 10
588.646385
 20
-222.405533
 30
0.0
  0
SPLINE
  5
1cf
100
AcDbEntity
  8
pico
 62
1
100
AcDbSpline
 70
8
 71
3
 72
8
 73
4
 74
0
 40
0
 40
0
 40
0
 40
0
 40
1
 40
1
 40
1
 40
1
 10
588.646385
 20
-222.405533
 30
0.0
 10
589.587847
 20
-223.346994
 30
0.0
 10
591.003729
 20
-223.628631
 30
0.0
 10
592.233808
 20
-223.119115
 30
0.0
  0
SPLINE
  5
1d0
100
AcDbEntity
  8
pico
 62
1
100
AcDbSpline
 70
8
 71
3
 72
8
 73
4
 74
0
 40
0
 40
0
 40
0
 40
0
 40
1
 40
1
 40
1
 40
1
 10
592.233808
 20
-223.119115
 30
0.0
 10
593.463886
 20
-222.609600
 30
0.0
 10
594.265919
 20
-221.409273
 30
0.0
 10
594.265919
 20
-220.077846
 30
0.0
  0
SPLINE
  5
1d1
100
AcDbEntity
  8
pico
 62
1
100
AcDbSpline
 70
8
 71
3
 72
8
 73
4
 74
0
 40
0
 40
0
 40
0
 40
0
 40
1
 40
1
 40
1
 40
1
 10
594.265919
 20
-220.077846
 30
0.0
 10
594.265919
 20
-219.204794
 30
0.0
 10
593.919100
 20
-218.367500
 30
0.0
 10
593.301760
 20
-217.750159
 30
0.0
  0
SPLINE
  5
1d2
100
AcDbEntity
  8
pico
 62
1
100
AcDbSpline
 70
8
 71
3
 72
8
 73
4
 74
0
 40
0
 40
0
 40
0
 40
0
 40
1
 40
1
 40
1
 40
1
 10
593.301760
 20
-217.750159
 30
0.0
 10
592.684419
 20
-217.132818
 30
0.0
 10
591.847124
 20
-216.785999
 30
0.0
 10
590.974072
 20
-216.785999
 30
0.0
  0
LWPOLYLINE
  5
1d3
100
AcDbEntity
  8
pico
 62
1
100
AcDbPolyline
 90
1
 70
1
 10
633.541304
 20
-38.154623
 30
0.0
  0
SPLINE
  5
1d4
100
AcDbEntity
  8
pico
 62
1
100
AcDbSpline
 70
8
 71
3
 72
8
 73
4
 74
0
 40
0
 40
0
 40
0
 40
0
 40
1
 40
1
 40
1
 40
1
 10
633.784479
 20
-216.785999
 30
0.0
 10
632.453051
 20
-216.785999
 30
0.0
 10
631.252724
 20
-217.588032
 30
0.0
 10
630.743209
 20
-218.818111
 30
0.0
  0
SPLINE
  5
1d5
100
AcDbEntity
  8
pico
 62
1
100
AcDbSpline
 70
8
 71
3
 72
8
 73
4
 74
0
 40
0
 40
0
 40
0
 40
0
 40
1
 40
1
 40
1
 40
1
 10
630.743209
 20
-218.818111
 30
0.0
 10
630.233694
 20
-220.048189
 30
0.0
 10
630.515330
 20
-221.464071
 30
0.0
 10
631.456792
 20
-222.405533
 30
0.0
  0
SPLINE
  5
1d6
100
AcDbEntity
  8
pico
 62
1
100
AcDbSpline
 70
8
 71
3
 72
8
 73
4
 74
0
 40
0
 40
0
 40
0
 40
0
 40
1
 40
1
 40
1
 40
1
 10
631.456792
 20
-222.405533
 30
0.0
 10
632.398253
 20
-223.346994
 30
0.0
 10
633.814135
 20
-223.628631
 30
0.0
 10
635.044214
 20
-223.119115
 30
0.0
  0
SPLINE
  5
1d7
100
AcDbEntity
  8
pico
 62
1
100
AcDbSpline
 70
8
 71
3
 72
8
 73
4
 74
0
 40
0
 40
0
 40
0
 40
0
 40
1
 40
1
 40
1
 40
1
 10
635.044214
 20
-223.119115
 30
0.0
 10
636.274293
 20
-222.609600
 30
0.0
 10
637.076325
 20
-221.409273
 30
0.0
 10
637.076325
 20
-220.077846
 30
0.0
  0
SPLINE
  5
1d8
100
AcDbEntity
  8
pico
 62
1
100
AcDbSpline
 70
8
 71
3
 72
8
 73
4
 74
0
 40
0
 40
0
 40
0
 40
0
 40
1
 40
1
 40
1
 40
1
 10
637.076325
 20
-220.077846
 30
0.0
 10
637.076325
 20
-219.204794
 30
0.0
 10
636.729507
 20
-218.367500
 30
0.0
 10
636.112166
 20
-217.750159
 30
0.0
  0
SPLINE
  5
1d9
100
AcDbEntity
  8
pico
 62
1
100
AcDbSpline
 70
8
 71
3
 72
8
 73
4
 74
0
 40
0
 40
0
 40
0
 40
0
 40
1
 40
1
 40
1
 40
1
 10
636.112166
 20
-217.750159
 30
0.0
 10
635.494825
 20
-217.132818
 30
0.0
 10
634.657531
 20
-216.785999
 30
0.0
 10
633.784479
 20
-216.785999
 30
0.0
  0
LWPOLYLINE
  5
1da
100
AcDbEntity
  8
pico
 62
1
100
AcDbPolyline
 90
1
 70
1
 10
590.974072
 20
-216.785999
 30
0.0
  0
LWPOLYLINE
  5
1db
100
AcDbEntity
  8
pico
 62
1
100
AcDbPolyline
 90
1
 70
1
 10
633.784479
 20
-216.785999
 30
0.0
  0
SPLINE
  5
1dc
100
AcDbEntity
  8
OLED
 62
1
100
AcDbSpline
 70
8
 71
3
 72
8
 73
4
 74
0
 40
0
 40
0
 40
0
 40
0
 40
1
 40
1
 40
1
 40
1
 10
458.100726
 20
-24.340319
 30
0.0
 10
455.640455
 20
-24.340319
 30
0.0
 10
453.422438
 20
-25.305481
 30
0.0
 10
452.480933
 20
-26.785751
 30
0.0
  0
SPLINE
  5
1dd
100
AcDbEntity
  8
OLED
 62
1
100
AcDbSpline
 70
8
 71
3
 72
8
 73
4
 74
0
 40
0
 40
0
 40
0
 40
0
 40
1
 40
1
 40
1
 40
1
 10
452.480933
 20
-26.785751
 30
0.0
 10
451.539428
 20
-28.266020
 30
0.0
 10
452.059848
 20
-29.969884
 30
0.0
 10
453.799522
 20
-31.102834
 30
0.0
  0
SPLINE
  5
1de
100
AcDbEntity
  8
OLED
 62
1
100
AcDbSpline
 70
8
 71
3
 72
8
 73
4
 74
0
 40
0
 40
0
 40
0
 40
0
 40
1
 40
1
 40
1
 40
1
 10
453.799522
 20
-31.102834
 30
0.0
 10
455.539197
 20
-32.235783
 30
0.0
 10
458.155526
 20
-32.574703
 30
0.0
 10
460.428521
 20
-31.961555
 30
0.0
  0
SPLINE
  5
1df
100
AcDbEntity
  8
OLED
 62
1
100
AcDbSpline
 70
8
 71
3
 72
8
 73
4
 74
0
 40
0
 40
0
 40
0
 40
0
 40
1
 40
1
 40
1
 40
1
 10
460.428521
 20
-31.961555
 30
0.0
 10
462.701515
 20
-31.348407
 30
0.0
 10
464.183546
 20
-29.903941
 30
0.0
 10
464.183546
 20
-28.301709
 30
0.0
  0
SPLINE
  5
1e0
100
AcDbEntity
  8
OLED
 62
1
100
AcDbSpline
 70
8
 71
3
 72
8
 73
4
 74
0
 40
0
 40
0
 40
0
 40
0
 40
1
 40
1
 40
1
 40
1
 10
464.183546
 20
-28.301709
 30
0.0
 10
464.183546
 20
-27.251083
 30
0.0
 10
463.542680
 20
-26.243488
 30
0.0
 10
462.401930
 20
-25.500583
 30
0.0
  0
SPLINE
  5
1e1
100
AcDbEntity
  8
OLED
 62
1
100
AcDbSpline
 70
8
 71
3
 72
8
 73
4
 74
0
 40
0
 40
0
 40
0
 40
0
 40
1
 40
1
 40
1
 40
1
 10
462.401930
 20
-25.500583
 30
0.0
 10
461.261179
 20
-24.757679
 30
0.0
 10
459.713990
 20
-24.340319
 30
0.0
 10
458.100726
 20
-24.340319
 30
0.0
  0
LWPOLYLINE
  5
1e2
100
AcDbEntity
  8
OLED
 62
1
100
AcDbPolyline
 90
4
 70
1
 10
452.053482
 20
-35.321846
 30
0.0
 10
552.588915
 20
-35.321846
 30
0.0
 10
552.588915
 20
-107.132869
 30
0.0
 10
452.053482
 20
-107.132869
 30
0.0
  0
SPLINE
  5
1e3
100
AcDbEntity
  8
OLED
 62
1
100
AcDbSpline
 70
8
 71
3
 72
8
 73
4
 74
0
 40
0
 40
0
 40
0
 40
0
 40
1
 40
1
 40
1
 40
1
 10
546.541671
 20
-24.340319
 30
0.0
 10
544.081400
 20
-24.340319
 30
0.0
 10
541.863383
 20
-25.305481
 30
0.0
 10
540.921878
 20
-26.785751
 30
0.0
  0
SPLINE
  5
1e4
100
AcDbEntity
  8
OLED
 62
1
100
AcDbSpline
 70
8
 71
3
 72
8
 73
4
 74
0
 40
0
 40
0
 40
0
 40
0
 40
1
 40
1
 40
1
 40
1
 10
540.921878
 20
-26.785751
 30
0.0
 10
539.980373
 20
-28.266020
 30
0.0
 10
540.500793
 20
-29.969884
 30
0.0
 10
542.240467
 20
-31.102834
 30
0.0
  0
SPLINE
  5
1e5
100
AcDbEntity
  8
OLED
 62
1
100
AcDbSpline
 70
8
 71
3
 72
8
 73
4
 74
0
 40
0
 40
0
 40
0
 40
0
 40
1
 40
1
 40
1
 40
1
 10
542.240467
 20
-31.102834
 30
0.0
 10
543.980142
 20
-32.235783
 30
0.0
 10
546.596471
 20
-32.574703
 30
0.0
 10
548.869465
 20
-31.961555
 30
0.0
  0
SPLINE
  5
1e6
100
AcDbEntity
  8
OLED
 62
1
100
AcDbSpline
 70
8
 71
3
 72
8
 73
4
 74
0
 40
0
 40
0
 40
0
 40
0
 40
1
 40
1
 40
1
 40
1
 10
548.869465
 20
-31.961555
 30
0.0
 10
551.142460
 20
-31.348407
 30
0.0
 10
552.624491
 20
-29.903941
 30
0.0
 10
552.624491
 20
-28.301709
 30
0.0
  0
SPLINE
  5
1e7
100
AcDbEntity
  8
OLED
 62
1
100
AcDbSpline
 70
8
 71
3
 72
8
 73
4
 74
0
 40
0
 40
0
 40
0
 40
0
 40
1
 40
1
 40
1
 40
1
 10
552.624491
 20
-28.301709
 30
0.0
 10
552.624491
 20
-27.251083
 30
0.0
 10
551.983625
 20
-26.243488
 30
0.0
 10
550.842874
 20
-25.500583
 30
0.0
  0
SPLINE
  5
1e8
100
AcDbEntity
  8
OLED
 62
1
100
AcDbSpline
 70
8
 71
3
 72
8
 73
4
 74
0
 40
0
 40
0
 40
0
 40
0
 40
1
 40
1
 40
1
 40
1
 10
550.842874
 20
-25.500583
 30
0.0
 10
549.702124
 20
-24.757679
 30
0.0
 10
548.154935
 20
-24.340319
 30
0.0
 10
546.541671
 20
-24.340319
 30
0.0
  0
LWPOLYLINE
  5
1e9
100
AcDbEntity
  8
OLED
 62
1
100
AcDbPolyline
 90
1
 70
1
 10
458.100726
 20
-24.340319
 30
0.0
  0
SPLINE
  5
1ea
100
AcDbEntity
  8
OLED
 62
1
100
AcDbSpline
 70
8
 71
3
 72
8
 73
4
 74
0
 40
0
 40
0
 40
0
 40
0
 40
1
 40
1
 40
1
 40
1
 10
546.541671
 20
-110.804151
 30
0.0
 10
544.081400
 20
-110.804151
 30
0.0
 10
541.863383
 20
-111.769313
 30
0.0
 10
540.921878
 20
-113.249583
 30
0.0
  0
SPLINE
  5
1eb
100
AcDbEntity
  8
OLED
 62
1
100
AcDbSpline
 70
8
 71
3
 72
8
 73
4
 74
0
 40
0
 40
0
 40
0
 40
0
 40
1
 40
1
 40
1
 40
1
 10
540.921878
 20
-113.249583
 30
0.0
 10
539.980373
 20
-114.729852
 30
0.0
 10
540.500793
 20
-116.433717
 30
0.0
 10
542.240467
 20
-117.566666
 30
0.0
  0
SPLINE
  5
1ec
100
AcDbEntity
  8
OLED
 62
1
100
AcDbSpline
 70
8
 71
3
 72
8
 73
4
 74
0
 40
0
 40
0
 40
0
 40
0
 40
1
 40
1
 40
1
 40
1
 10
542.240467
 20
-117.566666
 30
0.0
 10
543.980142
 20
-118.699615
 30
0.0
 10
546.596471
 20
-119.038535
 30
0.0
 10
548.869465
 20
-118.425387
 30
0.0
  0
SPLINE
  5
1ed
100
AcDbEntity
  8
OLED
 62
1
100
AcDbSpline
 70
8
 71
3
 72
8
 73
4
 74
0
 40
0
 40
0
 40
0
 40
0
 40
1
 40
1
 40
1
 40
1
 10
548.869465
 20
-118.425387
 30
0.0
 10
551.142460
 20
-117.812239
 30
0.0
 10
552.624491
 20
-116.367773
 30
0.0
 10
552.624491
 20
-114.765541
 30
0.0
  0
SPLINE
  5
1ee
100
AcDbEntity
  8
OLED
 62
1
100
AcDbSpline
 70
8
 71
3
 72
8
 73
4
 74
0
 40
0
 40
0
 40
0
 40
0
 40
1
 40
1
 40
1
 40
1
 10
552.624491
 20
-114.765541
 30
0.0
 10
552.624491
 20
-113.714915
 30
0.0
 10
551.983625
 20
-112.707320
 30
0.0
 10
550.842874
 20
-111.964415
 30
0.0
  0
SPLINE
  5
1ef
100
AcDbEntity
  8
OLED
 62
1
100
AcDbSpline
 70
8
 71
3
 72
8
 73
4
 74
0
 40
0
 40
0
 40
0
 40
0
 40
1
 40
1
 40
1
 40
1
 10
550.842874
 20
-111.964415
 30
0.0
 10
549.702124
 20
-111.221511
 30
0.0
 10
548.154935
 20
-110.804151
 30
0.0
 10
546.541671
 20
-110.804151
 30
0.0
  0
LWPOLYLINE
  5
1f0
100
AcDbEntity
  8
OLED
 62
1
100
AcDbPolyline
 90
1
 70
1
 10
546.541671
 20
-24.340319
 30
0.0
  0
SPLINE
  5
1f1
100
AcDbEntity
  8
OLED
 62
1
100
AcDbSpline
 70
8
 71
3
 72
8
 73
4
 74
0
 40
0
 40
0
 40
0
 40
0
 40
1
 40
1
 40
1
 40
1
 10
458.100726
 20
-110.804151
 30
0.0
 10
455.640455
 20
-110.804151
 30
0.0
 10
453.422438
 20
-111.769313
 30
0.0
 10
452.480933
 20
-113.249583
 30
0.0
  0
SPLINE
  5
1f2
100
AcDbEntity
  8
OLED
 62
1
100
AcDbSpline
 70
8
 71
3
 72
8
 73
4
 74
0
 40
0
 40
0
 40
0
 40
0
 40
1
 40
1
 40
1
 40
1
 10
452.480933
 20
-113.249583
 30
0.0
 10
451.539428
 20
-114.729852
 30
0.0
 10
452.059848
 20
-116.433717
 30
0.0
 10
453.799522
 20
-117.566666
 30
0.0
  0
SPLINE
  5
1f3
100
AcDbEntity
  8
OLED
 62
1
100
AcDbSpline
 70
8
 71
3
 72
8
 73
4
 74
0
 40
0
 40
0
 40
0
 40
0
 40
1
 40
1
 40
1
 40
1
 10
453.799522
 20
-117.566666
 30
0.0
 10
455.539197
 20
-118.699615
 30
0.0
 10
458.155526
 20
-119.038535
 30
0.0
 10
460.428521
 20
-118.425387
 30
0.0
  0
SPLINE
  5
1f4
100
AcDbEntity
  8
OLED
 62
1
100
AcDbSpline
 70
8
 71
3
 72
8
 73
4
 74
0
 40
0
 40
0
 40
0
 40
0
 40
1
 40
1
 40
1
 40
1
 10
460.428521
 20
-118.425387
 30
0.0
 10
462.701515
 20
-117.812239
 30
0.0
 10
464.183546
 20
-116.367773
 30
0.0
 10
464.183546
 20
-114.765541
 30
0.0
  0
SPLINE
  5
1f5
100
AcDbEntity
  8
OLED
 62
1
100
AcDbSpline
 70
8
 71
3
 72
8
 73
4
 74
0
 40
0
 40
0
 40
0
 40
0
 40
1
 40
1
 40
1
 40
1
 10
464.183546
 20
-114.765541
 30
0.0
 10
464.183546
 20
-113.714915
 30
0.0
 10
463.542680
 20
-112.707320
 30
0.0
 10
462.401930
 20
-111.964415
 30
0.0
  0
SPLINE
  5
1f6
100
AcDbEntity
  8
OLED
 62
1
100
AcDbSpline
 70
8
 71
3
 72
8
 73
4
 74
0
 40
0
 40
0
 40
0
 40
0
 40
1
 40
1
 40
1
 40
1
 10
462.401930
 20
-111.964415
 30
0.0
 10
461.261179
 20
-111.221511
 30
0.0
 10
459.713990
 20
-110.804151
 30
0.0
 10
458.100726
 20
-110.804151
 30
0.0
  0
LWPOLYLINE
  5
1f7
100
AcDbEntity
  8
OLED
 62
1
100
AcDbPolyline
 90
1
 70
1
 10
546.541671
 20
-110.804151
 30
0.0
  0
LWPOLYLINE
  5
1f8
100
AcDbEntity
  8
OLED
 62
1
100
AcDbPolyline
 90
1
 70
1
 10
458.100726
 20
-110.804151
 30
0.0
  0
LWPOLYLINE
  5
1f9
100
AcDbEntity
  8
OLED
 62
1
100
AcDbPolyline
 90
4
 70
1
 10
558.895975
 20
-200.574765
 30
0.0
 10
581.573140
 20
-200.574765
 30
0.0
 10
581.573140
 20
-223.251931
 30
0.0
 10
558.895975
 20
-223.251931
 30
0.0
  0
LWPOLYLINE
  5
1fa
100
AcDbEntity
  8
OLED
 62
1
100
AcDbPolyline
 90
4
 70
1
 10
558.561109
 20
-151.267087
 30
0.0
 10
581.238274
 20
-151.267087
 30
0.0
 10
581.238274
 20
-173.944252
 30
0.0
 10
558.561109
 20
-173.944252
 30
0.0
  0
SPLINE
  5
1fb
100
AcDbEntity
  8
OLED
 62
1
100
AcDbSpline
 70
8
 71
3
 72
8
 73
4
 74
0
 40
0
 40
0
 40
0
 40
0
 40
1
 40
1
 40
1
 40
1
 10
645.409474
 20
-145.004193
 30
0.0
 10
633.354657
 20
-145.004193
 30
0.0
 10
623.582296
 20
-154.776553
 30
0.0
 10
623.582296
 20
-166.831370
 30
0.0
  0
SPLINE
  5
1fc
100
AcDbEntity
  8
OLED
 62
1
100
AcDbSpline
 70
8
 71
3
 72
8
 73
4
 74
0
 40
0
 40
0
 40
0
 40
0
 40
1
 40
1
 40
1
 40
1
 10
623.582296
 20
-166.831370
 30
0.0
 10
623.582296
 20
-178.886187
 30
0.0
 10
633.354657
 20
-188.658548
 30
0.0
 10
645.409474
 20
-188.658548
 30
0.0
  0
SPLINE
  5
1fd
100
AcDbEntity
  8
OLED
 62
1
100
AcDbSpline
 70
8
 71
3
 72
8
 73
4
 74
0
 40
0
 40
0
 40
0
 40
0
 40
1
 40
1
 40
1
 40
1
 10
645.409474
 20
-188.658548
 30
0.0
 10
657.464291
 20
-188.658548
 30
0.0
 10
667.236652
 20
-178.886187
 30
0.0
 10
667.236652
 20
-166.831370
 30
0.0
  0
SPLINE
  5
1fe
100
AcDbEntity
  8
OLED
 62
1
100
AcDbSpline
 70
8
 71
3
 72
8
 73
4
 74
0
 40
0
 40
0
 40
0
 40
0
 40
1
 40
1
 40
1
 40
1
 10
667.236652
 20
-166.831370
 30
0.0
 10
667.236652
 20
-161.042443
 30
0.0
 10
664.937009
 20
-155.490615
 30
0.0
 10
660.843619
 20
-151.397225
 30
0.0
  0
SPLINE
  5
1ff
100
AcDbEntity
  8
OLED
 62
1
100
AcDbSpline
 70
8
 71
3
 72
8
 73
4
 74
0
 40
0
 40
0
 40
0
 40
0
 40
1
 40
1
 40
1
 40
1
 10
660.843619
 20
-151.397225
 30
0.0
 10
656.750229
 20
-147.303835
 30
0.0
 10
651.198401
 20
-145.004193
 30
0.0
 10
645.409474
 20
-145.004193
 30
0.0
  0
LWPOLYLINE
  5
200
100
AcDbEntity
  8
OLED
 62
1
100
AcDbPolyline
 90
4
 70
1
 10
644.776630
 20
-200.574765
 30
0.0
 10
667.453795
 20
-200.574765
 30
0.0
 10
667.453795
 20
-223.251931
 30
0.0
 10
644.776630
 20
-223.251931
 30
0.0
  0
LWPOLYLINE
  5
201
100
AcDbEntity
  8
OLED
 62
1
100
AcDbPolyline
 90
1
 70
1
 10
645.409474
 20
-145.004193
 30
0.0
  0
ENDSEC
  0
SECTION
  2
OBJECTS
  0
DICTIONARY
  5
C
330
0
100
AcDbDictionary
  3
ACAD_GROUP
350
D
  3
ACAD_MLINESTYLE
350
17
  0
DICTIONARY
  5
D
330
C
100
AcDbDictionary
  0
DICTIONARY
  5
1A
330
C
100
AcDbDictionary
  0
DICTIONARY
  5
17
330
C
100
AcDbDictionary
  3
STANDARD
350
18
  0
DICTIONARY
  5
19
330
C
100
AcDbDictionary
  0
ENDSEC
  0
EOF
